<?xml version="1.0" encoding="UTF-8"?>
<svg id="Layer_1" data-name="Layer 1" xmlns="http://www.w3.org/2000/svg" width="890" height="800" xmlns:xlink="http://www.w3.org/1999/xlink" viewBox="0 0 890 800">
  <defs>
    <linearGradient id="linear-gradient" x1="-104.25" y1="397.54" x2="253" y2="397.54" gradientUnits="userSpaceOnUse">
      <stop offset=".34" stop-color="#223654"/>
      <stop offset=".4" stop-color="#38554c"/>
      <stop offset=".5" stop-color="#5e8940"/>
      <stop offset=".6" stop-color="#7bb336"/>
      <stop offset=".68" stop-color="#91d12f"/>
      <stop offset=".76" stop-color="#9ee32b"/>
      <stop offset=".81" stop-color="#a3ea2a"/>
    </linearGradient>
    <linearGradient id="linear-gradient-2" x1="429.39" y1="163.43" x2="278.92" y2="149.49" gradientUnits="userSpaceOnUse">
      <stop offset="0" stop-color="#727c92"/>
      <stop offset="1" stop-color="#d4d8df"/>
    </linearGradient>
    <linearGradient id="linear-gradient-3" x1="360.24" y1="109.72" x2="250.3" y2="47.77" gradientUnits="userSpaceOnUse">
      <stop offset="0" stop-color="#1c2538"/>
      <stop offset="1" stop-color="#2a59be"/>
    </linearGradient>
    <linearGradient id="linear-gradient-4" x1="495.16" y1="154" x2="328.22" y2="138.54" xlink:href="#linear-gradient-2"/>
    <linearGradient id="linear-gradient-5" x1="393.92" y1="151.56" x2="351.72" y2="147.65" xlink:href="#linear-gradient-2"/>
    <linearGradient id="linear-gradient-6" x1="325.2" y1="169.13" x2="322.5" y2="164.44" gradientUnits="userSpaceOnUse">
      <stop offset="0" stop-color="#1c2538"/>
      <stop offset="1" stop-color="#223654"/>
    </linearGradient>
    <linearGradient id="linear-gradient-7" x1="296.29" y1="152.65" x2="293.59" y2="147.96" xlink:href="#linear-gradient-6"/>
    <linearGradient id="linear-gradient-8" x1="303.52" y1="148.46" x2="300.82" y2="143.78" xlink:href="#linear-gradient-6"/>
    <linearGradient id="linear-gradient-9" x1="310.55" y1="144.2" x2="307.84" y2="139.51" xlink:href="#linear-gradient-6"/>
    <linearGradient id="linear-gradient-10" x1="317.68" y1="139.96" x2="314.98" y2="135.27" xlink:href="#linear-gradient-6"/>
    <linearGradient id="linear-gradient-11" x1="325.02" y1="135.81" x2="322.32" y2="131.12" xlink:href="#linear-gradient-6"/>
    <linearGradient id="linear-gradient-12" x1="332.16" y1="131.57" x2="329.45" y2="126.88" xlink:href="#linear-gradient-6"/>
    <linearGradient id="linear-gradient-13" x1="339.42" y1="127.43" x2="336.71" y2="122.75" xlink:href="#linear-gradient-6"/>
    <linearGradient id="linear-gradient-14" x1="346.55" y1="123.19" x2="343.84" y2="118.51" xlink:href="#linear-gradient-6"/>
    <linearGradient id="linear-gradient-15" x1="353.68" y1="119.07" x2="350.97" y2="114.38" xlink:href="#linear-gradient-6"/>
    <linearGradient id="linear-gradient-16" x1="317.68" y1="148.32" x2="314.98" y2="143.63" xlink:href="#linear-gradient-6"/>
    <linearGradient id="linear-gradient-17" x1="325.02" y1="144.17" x2="322.32" y2="139.48" xlink:href="#linear-gradient-6"/>
    <linearGradient id="linear-gradient-18" x1="332.16" y1="139.93" x2="329.45" y2="135.24" xlink:href="#linear-gradient-6"/>
    <linearGradient id="linear-gradient-19" x1="339.42" y1="135.8" x2="336.71" y2="131.11" xlink:href="#linear-gradient-6"/>
    <linearGradient id="linear-gradient-20" x1="346.55" y1="131.56" x2="343.84" y2="126.87" xlink:href="#linear-gradient-6"/>
    <linearGradient id="linear-gradient-21" x1="353.68" y1="127.43" x2="350.97" y2="122.75" xlink:href="#linear-gradient-6"/>
    <linearGradient id="linear-gradient-22" y1="151.97" x2="322.5" y2="147.28" xlink:href="#linear-gradient-6"/>
    <linearGradient id="linear-gradient-23" x1="332.54" y1="147.81" x2="329.84" y2="143.13" xlink:href="#linear-gradient-6"/>
    <linearGradient id="linear-gradient-24" x1="339.67" y1="143.58" x2="336.97" y2="138.89" xlink:href="#linear-gradient-6"/>
    <linearGradient id="linear-gradient-25" x1="346.94" y1="139.44" x2="344.23" y2="134.75" xlink:href="#linear-gradient-6"/>
    <linearGradient id="linear-gradient-26" x1="354.07" y1="135.2" x2="351.36" y2="130.52" xlink:href="#linear-gradient-6"/>
    <linearGradient id="linear-gradient-27" x1="361.19" y1="131.08" x2="358.49" y2="126.39" xlink:href="#linear-gradient-6"/>
    <linearGradient id="linear-gradient-28" x1="336.07" y1="154.02" x2="333.37" y2="149.33" xlink:href="#linear-gradient-6"/>
    <linearGradient id="linear-gradient-29" x1="343.41" y1="149.87" x2="340.71" y2="145.18" xlink:href="#linear-gradient-6"/>
    <linearGradient id="linear-gradient-30" x1="350.54" y1="145.63" x2="347.84" y2="140.94" xlink:href="#linear-gradient-6"/>
    <linearGradient id="linear-gradient-31" x1="357.8" y1="141.49" x2="355.1" y2="136.81" xlink:href="#linear-gradient-6"/>
    <linearGradient id="linear-gradient-32" x1="364.94" y1="137.26" x2="362.23" y2="132.57" xlink:href="#linear-gradient-6"/>
    <linearGradient id="linear-gradient-33" x1="372.06" y1="133.13" x2="369.36" y2="128.45" xlink:href="#linear-gradient-6"/>
    <linearGradient id="linear-gradient-34" x1="360.81" y1="114.83" x2="358.1" y2="110.15" xlink:href="#linear-gradient-6"/>
    <linearGradient id="linear-gradient-35" x1="360.81" y1="123.19" x2="358.1" y2="118.51" xlink:href="#linear-gradient-6"/>
    <linearGradient id="linear-gradient-36" x1="367.94" y1="118.96" x2="365.24" y2="114.27" xlink:href="#linear-gradient-6"/>
    <linearGradient id="linear-gradient-37" x1="375.08" y1="114.83" x2="372.38" y2="110.15" xlink:href="#linear-gradient-6"/>
    <linearGradient id="linear-gradient-38" x1="382.21" y1="110.59" x2="379.51" y2="105.91" xlink:href="#linear-gradient-6"/>
    <linearGradient id="linear-gradient-39" x1="404.34" y1="122.91" x2="401.64" y2="118.22" xlink:href="#linear-gradient-6"/>
    <linearGradient id="linear-gradient-40" x1="368.5" y1="126.89" x2="365.79" y2="122.21" xlink:href="#linear-gradient-6"/>
    <linearGradient id="linear-gradient-41" x1="375.63" y1="122.66" x2="372.92" y2="117.97" xlink:href="#linear-gradient-6"/>
    <linearGradient id="linear-gradient-42" x1="379.14" y1="128.82" x2="376.43" y2="124.13" xlink:href="#linear-gradient-6"/>
    <linearGradient id="linear-gradient-43" x1="332.25" y1="164.88" x2="329.55" y2="160.2" xlink:href="#linear-gradient-6"/>
    <linearGradient id="linear-gradient-44" x1="339.42" y1="160.67" x2="336.71" y2="155.98" xlink:href="#linear-gradient-6"/>
    <linearGradient id="linear-gradient-45" x1="348.62" y1="155.21" x2="345.96" y2="150.6" xlink:href="#linear-gradient-6"/>
    <linearGradient id="linear-gradient-46" x1="372.68" y1="141.48" x2="369.83" y2="136.67" xlink:href="#linear-gradient-6"/>
    <linearGradient id="linear-gradient-47" x1="306.33" y1="154.82" x2="303.66" y2="150.2" xlink:href="#linear-gradient-6"/>
    <linearGradient id="linear-gradient-48" x1="314.1" y1="158.56" x2="311.43" y2="153.93" xlink:href="#linear-gradient-6"/>
    <linearGradient id="linear-gradient-49" x1="372.05" y1="108.3" x2="369.38" y2="103.67" xlink:href="#linear-gradient-6"/>
    <linearGradient id="linear-gradient-50" x1="395.69" y1="127.72" x2="393.03" y2="123.1" xlink:href="#linear-gradient-6"/>
    <linearGradient id="linear-gradient-51" x1="386.1" y1="116.55" x2="383.42" y2="111.92" xlink:href="#linear-gradient-6"/>
    <linearGradient id="linear-gradient-52" x1="323.12" y1="161.67" x2="320.33" y2="156.84" xlink:href="#linear-gradient-6"/>
    <linearGradient id="linear-gradient-53" x1="391.57" y1="121.65" x2="388.79" y2="116.82" xlink:href="#linear-gradient-6"/>
    <linearGradient id="linear-gradient-54" x1="323.07" y1="107.43" x2="276.9" y2="81.42" gradientUnits="userSpaceOnUse">
      <stop offset="0" stop-color="#2a59be"/>
      <stop offset="1" stop-color="#02adef"/>
    </linearGradient>
    <linearGradient id="linear-gradient-55" x1="357.21" y1="226.3" x2="351.21" y2="310.36" gradientUnits="userSpaceOnUse">
      <stop offset="0" stop-color="#9da8c4"/>
      <stop offset=".57" stop-color="#4f5669"/>
      <stop offset="1" stop-color="#444b5c"/>
    </linearGradient>
    <linearGradient id="linear-gradient-56" x1="303.34" y1="251.11" x2="319.23" y2="342.97" xlink:href="#linear-gradient-55"/>
    <linearGradient id="linear-gradient-57" x1="486.15" y1="176.02" x2="334.61" y2="419.79" xlink:href="#linear-gradient-55"/>
    <linearGradient id="linear-gradient-58" x1="-1963.29" y1="273.5" x2="-1939.38" y2="277.67" gradientTransform="translate(-1528.81 -93.21) rotate(-176.41) scale(1 -1)" gradientUnits="userSpaceOnUse">
      <stop offset="0" stop-color="#666"/>
      <stop offset=".57" stop-color="#4d4d4d"/>
      <stop offset="1" stop-color="#333"/>
    </linearGradient>
    <linearGradient id="linear-gradient-59" x1="-1975.25" y1="300.31" x2="-1915.2" y2="300.31" xlink:href="#linear-gradient-58"/>
    <linearGradient id="linear-gradient-60" x1="-1978.65" y1="323.56" x2="-1917.51" y2="323.56" gradientTransform="translate(-1528.81 -93.21) rotate(-176.41) scale(1 -1)" gradientUnits="userSpaceOnUse">
      <stop offset="0" stop-color="#666"/>
      <stop offset=".19" stop-color="#4d4d4d"/>
      <stop offset=".65" stop-color="#333"/>
    </linearGradient>
    <radialGradient id="radial-gradient" cx="353.94" cy="504.35" fx="353.94" fy="504.35" r="82.79" gradientUnits="userSpaceOnUse">
      <stop offset="0" stop-color="#02adef"/>
      <stop offset=".22" stop-color="#03a9ec"/>
      <stop offset=".44" stop-color="#099de5"/>
      <stop offset=".65" stop-color="#1289da"/>
      <stop offset=".87" stop-color="#206dca"/>
      <stop offset="1" stop-color="#2a59be"/>
    </radialGradient>
    <radialGradient id="radial-gradient-2" cx="353.94" cy="504.35" fx="353.94" fy="504.35" r="62.91" gradientUnits="userSpaceOnUse">
      <stop offset="0" stop-color="#fff"/>
      <stop offset=".33" stop-color="#fcfcfc"/>
      <stop offset=".55" stop-color="#f3f4f6"/>
      <stop offset=".74" stop-color="#e4e6eb"/>
      <stop offset=".87" stop-color="#d4d8df"/>
    </radialGradient>
    <linearGradient id="linear-gradient-61" x1="357.21" y1="613.5" x2="351.21" y2="697.56" xlink:href="#linear-gradient-55"/>
    <linearGradient id="linear-gradient-62" x1="303.34" y1="638.31" x2="319.23" y2="730.17" xlink:href="#linear-gradient-55"/>
    <linearGradient id="linear-gradient-63" x1="486.15" y1="563.22" x2="334.61" y2="806.99" xlink:href="#linear-gradient-55"/>
    <linearGradient id="linear-gradient-64" x1="-1987.55" y1="659.94" x2="-1963.64" y2="664.11" xlink:href="#linear-gradient-58"/>
    <linearGradient id="linear-gradient-65" x1="-1999.51" y1="686.75" x2="-1939.45" y2="686.75" xlink:href="#linear-gradient-58"/>
    <linearGradient id="linear-gradient-66" x1="-2002.91" y1="710" x2="-1941.77" y2="710" xlink:href="#linear-gradient-60"/>
    <linearGradient id="linear-gradient-67" x1="475.96" y1="144.04" x2="475.96" y2="267.23" gradientUnits="userSpaceOnUse">
      <stop offset=".11" stop-color="#a3ea2a"/>
      <stop offset=".5" stop-color="#223654"/>
      <stop offset=".91" stop-color="#a3ea2a"/>
    </linearGradient>
    <linearGradient id="linear-gradient-68" x1="850.89" y1="974.56" x2="1045.81" y2="974.56" gradientTransform="translate(1450.35 -585.35) rotate(90)" xlink:href="#linear-gradient"/>
    <linearGradient id="linear-gradient-69" x1="1047.38" y1="973.56" x2="1242.3" y2="973.56" gradientTransform="translate(1450.35 -585.35) rotate(90)" xlink:href="#linear-gradient"/>
  </defs>
  <g>
    <path d="m262.56,143.97l-29.43,10.9c-.87.32-1.08,1.46-.37,2.06l6.12,5.15L49.92,389.03l-16.37-6.06c-.87-.32-1.74.41-1.57,1.32l5.68,30.86c.17.91,1.26,1.31,1.96.72l5.65-4.75.05.04c.45.37.94.64,1.47.81l197.87,237.66c1.55,1.84,4.3,2.08,6.15.53l4.79-4.03c1.85-1.55,2.09-4.31.53-6.16L58.32,402.39l192.05-230.67,6.13,5.15c.71.59,1.79.19,1.96-.72l5.68-30.86c.17-.91-.7-1.64-1.57-1.32Z" style="fill: url(#linear-gradient);"/>
    <g>
      <rect x="14.71" y="376.66" width="54.21" height="46.69" rx="6.21" ry="6.21" style="fill: #1c2538;"/>
      <path d="m43.76,404.72c0-.5-.11-.94-.33-1.32s-.61-.71-1.15-.96c-.55-.26-1.28-.45-2.2-.59-.92-.14-2.09-.21-3.49-.21.19-1.59.34-3.2.46-4.85s.21-3.18.28-4.61h9.61v3.2h-6.41c-.03.62-.07,1.21-.12,1.78s-.09,1.07-.14,1.5c2.5.17,4.34.76,5.52,1.76,1.19,1,1.78,2.39,1.78,4.16,0,.82-.15,1.58-.44,2.28s-.73,1.31-1.31,1.82c-.58.51-1.31.91-2.19,1.2-.88.29-1.91.44-3.09.44-.46,0-.94-.03-1.45-.09-.5-.06-.99-.14-1.46-.23-.47-.09-.89-.19-1.27-.29s-.67-.21-.87-.31l.69-3.15c.43.19.99.37,1.69.55.7.18,1.54.27,2.51.27,1.18,0,2.03-.24,2.56-.71s.79-1.02.79-1.65Z" style="fill: #a3ea2a;"/>
    </g>
    <g>
      <path d="m278.76,151.22v1.8c0,.55.3,1.07.77,1.34l57.57,33.52c.55.32,1.23.32,1.78,0l92.57-54.33c.52-.3.83-.85.83-1.45v-1.58l-153.53,20.7Z" style="fill: url(#linear-gradient-2);"/>
      <path d="m277.97,147.13l-2.38-68.27c-.07-2.11,1.1-4.07,3-5l91.54-44.87c1.24-.61,2.68.29,2.68,1.67v61.98c0,2.04-1.09,3.92-2.85,4.93l-89.01,51.21c-1.3.75-2.93-.16-2.98-1.65Z" style="fill: #1c2538;"/>
      <path d="m281,75.78l85.9-42.21c1.12-.55,2.43.27,2.43,1.52v59.89c0,1.13-.6,2.17-1.58,2.73l-84.5,48.5c-1,.57-2.25-.12-2.3-1.27l-2.51-64.87c-.07-1.81.93-3.5,2.56-4.3Z" style="fill: url(#linear-gradient-3);"/>
      <polygon points="295.37 73.84 357.43 43.34 357.43 97.51 296.23 132.64 295.37 73.84" style="fill: #1c2538;"/>
      <path d="m303.14,83.35c-.25,0-.48-.14-.6-.37-.16-.33-.03-.73.3-.89l46.51-22.86c.33-.16.73-.03.89.3.16.33.03.73-.3.89l-46.51,22.86c-.09.05-.19.07-.29.07Z" style="fill: #a3ea2a;"/>
      <path d="m303.14,91.24c-.25,0-.48-.14-.6-.37-.16-.33-.03-.73.3-.89l41.26-20.27c.33-.16.73-.03.89.3.16.33.03.73-.3.89l-41.26,20.27c-.09.05-.19.07-.29.07Z" style="fill: #a3ea2a;"/>
      <path d="m303.14,100.08c-.25,0-.48-.14-.6-.37-.16-.33-.03-.73.3-.89l44.15-21.69c.33-.16.73-.03.89.3.16.33.03.73-.3.89l-44.15,21.69c-.09.05-.19.07-.29.07Z" style="fill: #a3ea2a;"/>
      <path d="m303.14,113.13c-.24,0-.47-.13-.59-.36-.17-.33-.04-.73.29-.89l46.17-23.72c.33-.17.73-.04.89.29.17.33.04.73-.29.89l-46.17,23.72c-.1.05-.2.07-.3.07Z" style="fill: #a3ea2a;"/>
      <path d="m303.14,120.5c-.24,0-.47-.13-.59-.36-.17-.33-.04-.73.28-.9l33.78-17.63c.33-.17.73-.04.9.28.17.33.04.73-.28.9l-33.78,17.63c-.1.05-.2.08-.31.08Z" style="fill: #a3ea2a;"/>
      <path d="m278.92,150.93l92.14-54.03c1.09-.64,2.43-.64,3.52-.01l57.39,33.08c.43.25.43.86,0,1.11l-92.79,54.41c-.55.32-1.24.32-1.79,0l-58.48-33.99c-.22-.13-.22-.44,0-.56Z" style="fill: url(#linear-gradient-4);"/>
      <path d="m357.26,153.06l26.39-15.35c.88-.51,1.96-.5,2.83.02l12.9,7.69c.75.45.75,1.54-.01,1.98l-26.02,15.15c-.86.5-1.91.5-2.77.02l-13.3-7.51c-.77-.44-.78-1.55-.01-2Z" style="fill: url(#linear-gradient-5);"/>
      <path d="m319.25,166.46l4.06-2.48c.36-.22.8-.22,1.16,0l4,2.48c.25.15.25.52,0,.67l-4.01,2.43c-.35.21-.79.21-1.14,0l-4.06-2.44c-.25-.15-.26-.52,0-.67Z" style="fill: url(#linear-gradient-6);"/>
      <path d="m290.34,149.98l4.06-2.48c.36-.22.8-.22,1.16,0l4,2.48c.25.15.25.52,0,.67l-4.01,2.43c-.35.21-.79.21-1.14,0l-4.06-2.44c-.25-.15-.26-.52,0-.67Z" style="fill: url(#linear-gradient-7);"/>
      <path d="m297.57,145.79l4.06-2.48c.36-.22.8-.22,1.16,0l4,2.48c.25.15.25.52,0,.67l-4.01,2.43c-.35.21-.79.21-1.14,0l-4.06-2.44c-.25-.15-.26-.52,0-.67Z" style="fill: url(#linear-gradient-8);"/>
      <path d="m304.6,141.52l4.06-2.48c.36-.22.8-.22,1.16,0l4,2.48c.25.15.25.52,0,.67l-4.01,2.43c-.35.21-.79.21-1.14,0l-4.06-2.44c-.25-.15-.26-.52,0-.67Z" style="fill: url(#linear-gradient-9);"/>
      <path d="m311.73,137.28l4.06-2.48c.36-.22.8-.22,1.16,0l4,2.48c.25.15.25.52,0,.67l-4.01,2.43c-.35.21-.79.21-1.14,0l-4.06-2.44c-.25-.15-.26-.52,0-.67Z" style="fill: url(#linear-gradient-10);"/>
      <path d="m319.07,133.13l4.06-2.48c.36-.22.8-.22,1.16,0l4,2.48c.25.15.25.52,0,.67l-4.01,2.43c-.35.21-.79.21-1.14,0l-4.06-2.44c-.25-.15-.26-.52,0-.67Z" style="fill: url(#linear-gradient-11);"/>
      <path d="m326.2,128.89l4.06-2.48c.36-.22.8-.22,1.16,0l4,2.48c.25.15.25.52,0,.67l-4.01,2.43c-.35.21-.79.21-1.14,0l-4.06-2.44c-.25-.15-.26-.52,0-.67Z" style="fill: url(#linear-gradient-12);"/>
      <path d="m333.46,124.76l4.06-2.48c.36-.22.8-.22,1.16,0l4,2.48c.25.15.25.52,0,.67l-4.01,2.43c-.35.21-.79.21-1.14,0l-4.06-2.44c-.25-.15-.26-.52,0-.67Z" style="fill: url(#linear-gradient-13);"/>
      <path d="m340.59,120.52l4.06-2.48c.36-.22.8-.22,1.16,0l4,2.48c.25.15.25.52,0,.67l-4.01,2.43c-.35.21-.79.21-1.14,0l-4.06-2.44c-.25-.15-.26-.52,0-.67Z" style="fill: url(#linear-gradient-14);"/>
      <path d="m347.72,116.4l4.06-2.48c.36-.22.8-.22,1.16,0l4,2.48c.25.15.25.52,0,.67l-4.01,2.43c-.35.21-.79.21-1.14,0l-4.06-2.44c-.25-.15-.26-.52,0-.67Z" style="fill: url(#linear-gradient-15);"/>
      <path d="m311.73,145.65l4.06-2.48c.36-.22.8-.22,1.16,0l4,2.48c.25.15.25.52,0,.67l-4.01,2.43c-.35.21-.79.21-1.14,0l-4.06-2.44c-.25-.15-.26-.52,0-.67Z" style="fill: url(#linear-gradient-16);"/>
      <path d="m319.07,141.5l4.06-2.48c.36-.22.8-.22,1.16,0l4,2.48c.25.15.25.52,0,.67l-4.01,2.43c-.35.21-.79.21-1.14,0l-4.06-2.44c-.25-.15-.26-.52,0-.67Z" style="fill: url(#linear-gradient-17);"/>
      <path d="m326.2,137.26l4.06-2.48c.36-.22.8-.22,1.16,0l4,2.48c.25.15.25.52,0,.67l-4.01,2.43c-.35.21-.79.21-1.14,0l-4.06-2.44c-.25-.15-.26-.52,0-.67Z" style="fill: url(#linear-gradient-18);"/>
      <path d="m333.46,133.12l4.06-2.48c.36-.22.8-.22,1.16,0l4,2.48c.25.15.25.52,0,.67l-4.01,2.43c-.35.21-.79.21-1.14,0l-4.06-2.44c-.25-.15-.26-.52,0-.67Z" style="fill: url(#linear-gradient-19);"/>
      <path d="m340.59,128.88l4.06-2.48c.36-.22.8-.22,1.16,0l4,2.48c.25.15.25.52,0,.67l-4.01,2.43c-.35.21-.79.21-1.14,0l-4.06-2.44c-.25-.15-.26-.52,0-.67Z" style="fill: url(#linear-gradient-20);"/>
      <path d="m347.72,124.76l4.06-2.48c.36-.22.8-.22,1.16,0l4,2.48c.25.15.25.52,0,.67l-4.01,2.43c-.35.21-.79.21-1.14,0l-4.06-2.44c-.25-.15-.26-.52,0-.67Z" style="fill: url(#linear-gradient-21);"/>
      <path d="m319.25,149.29l4.06-2.48c.36-.22.8-.22,1.16,0l4,2.48c.25.15.25.52,0,.67l-4.01,2.43c-.35.21-.79.21-1.14,0l-4.06-2.44c-.25-.15-.26-.52,0-.67Z" style="fill: url(#linear-gradient-22);"/>
      <path d="m326.59,145.14l4.06-2.48c.36-.22.8-.22,1.16,0l4,2.48c.25.15.25.52,0,.67l-4.01,2.43c-.35.21-.79.21-1.14,0l-4.06-2.44c-.25-.15-.26-.52,0-.67Z" style="fill: url(#linear-gradient-23);"/>
      <path d="m333.72,140.9l4.06-2.48c.36-.22.8-.22,1.16,0l4,2.48c.25.15.25.52,0,.67l-4.01,2.43c-.35.21-.79.21-1.14,0l-4.06-2.44c-.25-.15-.26-.52,0-.67Z" style="fill: url(#linear-gradient-24);"/>
      <path d="m340.98,136.77l4.06-2.48c.36-.22.8-.22,1.16,0l4,2.48c.25.15.25.52,0,.67l-4.01,2.43c-.35.21-.79.21-1.14,0l-4.06-2.44c-.25-.15-.26-.52,0-.67Z" style="fill: url(#linear-gradient-25);"/>
      <path d="m348.11,132.53l4.06-2.48c.36-.22.8-.22,1.16,0l4,2.48c.25.15.25.52,0,.67l-4.01,2.43c-.35.21-.79.21-1.14,0l-4.06-2.44c-.25-.15-.26-.52,0-.67Z" style="fill: url(#linear-gradient-26);"/>
      <path d="m355.24,128.41l4.06-2.48c.36-.22.8-.22,1.16,0l4,2.48c.25.15.25.52,0,.67l-4.01,2.43c-.35.21-.79.21-1.14,0l-4.06-2.44c-.25-.15-.26-.52,0-.67Z" style="fill: url(#linear-gradient-27);"/>
      <path d="m330.12,151.35l4.06-2.48c.36-.22.8-.22,1.16,0l4,2.48c.25.15.25.52,0,.67l-4.01,2.43c-.35.21-.79.21-1.14,0l-4.06-2.44c-.25-.15-.26-.52,0-.67Z" style="fill: url(#linear-gradient-28);"/>
      <path d="m337.46,147.2l4.06-2.48c.36-.22.8-.22,1.16,0l4,2.48c.25.15.25.52,0,.67l-4.01,2.43c-.35.21-.79.21-1.14,0l-4.06-2.44c-.25-.15-.26-.52,0-.67Z" style="fill: url(#linear-gradient-29);"/>
      <path d="m344.59,142.96l4.06-2.48c.36-.22.8-.22,1.16,0l4,2.48c.25.15.25.52,0,.67l-4.01,2.43c-.35.21-.79.21-1.14,0l-4.06-2.44c-.25-.15-.26-.52,0-.67Z" style="fill: url(#linear-gradient-30);"/>
      <path d="m351.85,138.82l4.06-2.48c.36-.22.8-.22,1.16,0l4,2.48c.25.15.25.52,0,.67l-4.01,2.43c-.35.21-.79.21-1.14,0l-4.06-2.44c-.25-.15-.26-.52,0-.67Z" style="fill: url(#linear-gradient-31);"/>
      <path d="m358.98,134.58l4.06-2.48c.36-.22.8-.22,1.16,0l4,2.48c.25.15.25.52,0,.67l-4.01,2.43c-.35.21-.79.21-1.14,0l-4.06-2.44c-.25-.15-.26-.52,0-.67Z" style="fill: url(#linear-gradient-32);"/>
      <path d="m366.11,130.46l4.06-2.48c.36-.22.8-.22,1.16,0l4,2.48c.25.15.25.52,0,.67l-4.01,2.43c-.35.21-.79.21-1.14,0l-4.06-2.44c-.25-.15-.26-.52,0-.67Z" style="fill: url(#linear-gradient-33);"/>
      <path d="m354.85,112.16l4.06-2.48c.36-.22.8-.22,1.16,0l4,2.48c.25.15.25.52,0,.67l-4.01,2.43c-.35.21-.79.21-1.14,0l-4.06-2.44c-.25-.15-.26-.52,0-.67Z" style="fill: url(#linear-gradient-34);"/>
      <path d="m354.85,120.52l4.06-2.48c.36-.22.8-.22,1.16,0l4,2.48c.25.15.25.52,0,.67l-4.01,2.43c-.35.21-.79.21-1.14,0l-4.06-2.44c-.25-.15-.26-.52,0-.67Z" style="fill: url(#linear-gradient-35);"/>
      <path d="m361.99,116.28l4.06-2.48c.36-.22.8-.22,1.16,0l4,2.48c.25.15.25.52,0,.67l-4.01,2.43c-.35.21-.79.21-1.14,0l-4.06-2.44c-.25-.15-.26-.52,0-.67Z" style="fill: url(#linear-gradient-36);"/>
      <path d="m369.13,112.16l4.06-2.48c.36-.22.8-.22,1.16,0l4,2.48c.25.15.25.52,0,.67l-4.01,2.43c-.35.21-.79.21-1.14,0l-4.06-2.44c-.25-.15-.26-.52,0-.67Z" style="fill: url(#linear-gradient-37);"/>
      <path d="m376.26,107.92l4.06-2.48c.36-.22.8-.22,1.16,0l4,2.48c.25.15.25.52,0,.67l-4.01,2.43c-.35.21-.79.21-1.14,0l-4.06-2.44c-.25-.15-.26-.52,0-.67Z" style="fill: url(#linear-gradient-38);"/>
      <path d="m398.39,120.24l4.06-2.48c.36-.22.8-.22,1.16,0l4,2.48c.25.15.25.52,0,.67l-4.01,2.43c-.35.21-.79.21-1.14,0l-4.06-2.44c-.25-.15-.26-.52,0-.67Z" style="fill: url(#linear-gradient-39);"/>
      <path d="m362.54,124.22l4.06-2.48c.36-.22.8-.22,1.16,0l4,2.48c.25.15.25.52,0,.67l-4.01,2.43c-.35.21-.79.21-1.14,0l-4.06-2.44c-.25-.15-.26-.52,0-.67Z" style="fill: url(#linear-gradient-40);"/>
      <path d="m369.68,119.98l4.06-2.48c.36-.22.8-.22,1.16,0l4,2.48c.25.15.25.52,0,.67l-4.01,2.43c-.35.21-.79.21-1.14,0l-4.06-2.44c-.25-.15-.26-.52,0-.67Z" style="fill: url(#linear-gradient-41);"/>
      <path d="m373.18,126.15l4.06-2.48c.36-.22.8-.22,1.16,0l4,2.48c.25.15.25.52,0,.67l-4.01,2.43c-.35.21-.79.21-1.14,0l-4.06-2.44c-.25-.15-.26-.52,0-.67Z" style="fill: url(#linear-gradient-42);"/>
      <path d="m326.3,162.21l4.06-2.48c.36-.22.8-.22,1.16,0l4,2.48c.25.15.25.52,0,.67l-4.01,2.43c-.35.21-.79.21-1.14,0l-4.06-2.44c-.25-.15-.26-.52,0-.67Z" style="fill: url(#linear-gradient-43);"/>
      <path d="m333.46,158l4.06-2.48c.36-.22.8-.22,1.16,0l4,2.48c.25.15.25.52,0,.67l-4.01,2.43c-.35.21-.79.21-1.14,0l-4.06-2.44c-.25-.15-.26-.52,0-.67Z" style="fill: url(#linear-gradient-44);"/>
      <path d="m340.54,153.77l8.36-4.86c.36-.22.8-.22,1.16,0l4,2.48c.25.15.25.52,0,.67l-8.31,4.81c-.35.21-.79.21-1.14,0l-4.06-2.44c-.25-.15-.26-.52,0-.67Z" style="fill: url(#linear-gradient-45);"/>
      <path d="m352.04,147.1l33.16-19.4c.36-.22.8-.22,1.16,0l4,2.48c.25.15.25.52,0,.67l-33.11,19.35c-.35.21-.79.21-1.14,0l-4.06-2.44c-.25-.15-.26-.52,0-.67Z" style="fill: url(#linear-gradient-46);"/>
      <path d="m297.57,153.77l9.71-5.66c.36-.22.8-.22,1.16,0l4,2.48c.25.15.25.52,0,.67l-9.66,5.61c-.35.21-.79.21-1.14,0l-4.06-2.44c-.25-.15-.26-.52,0-.67Z" style="fill: url(#linear-gradient-47);"/>
      <path d="m304.6,157.87l11.19-6.41c.36-.22.8-.22,1.16,0l4,2.48c.25.15.25.52,0,.67l-11.14,6.37c-.35.21-.79.21-1.14,0l-4.06-2.44c-.25-.15-.26-.52,0-.67Z" style="fill: url(#linear-gradient-48);"/>
      <path d="m362.54,107.62l11.19-6.41c.36-.22.8-.22,1.16,0l4,2.48c.25.15.25.52,0,.67l-11.14,6.37c-.35.21-.79.21-1.14,0l-4.06-2.44c-.25-.15-.26-.52,0-.67Z" style="fill: url(#linear-gradient-49);"/>
      <path d="m387.69,126.18l8.19-4.7c.36-.22.8-.22,1.16,0l4,2.48c.25.15.25.52,0,.67l-8.14,4.65c-.35.21-.79.21-1.14,0l-4.06-2.44c-.25-.15-.26-.52,0-.67Z" style="fill: url(#linear-gradient-50);"/>
      <path d="m376.59,115.86l11.19-6.41c.36-.22.8-.22,1.16,0l4,2.48c.25.15.25.52,0,.67l-11.14,6.37c-.35.21-.79.21-1.14,0l-4.06-2.44c-.25-.15-.26-.52,0-.67Z" style="fill: url(#linear-gradient-51);"/>
      <path d="m311.76,161.94l14.47-8.5c.36-.21.8-.21,1.16-.01l4.33,2.41c.31.17.31.61,0,.79l-14.78,8.61c-.37.22-.84.21-1.21-.02l-3.99-2.5c-.29-.18-.28-.6.01-.78Z" style="fill: url(#linear-gradient-52);"/>
      <path d="m380.21,121.92l14.47-8.5c.36-.21.8-.21,1.16-.01l4.33,2.41c.31.17.31.61,0,.79l-14.78,8.61c-.37.22-.84.21-1.21-.02l-3.99-2.5c-.29-.18-.28-.6.01-.78Z" style="fill: url(#linear-gradient-53);"/>
      <polygon points="319.96 126.34 322.12 127.76 344.78 114.5 342.64 113.3 319.96 126.34" style="fill: #1c2538;"/>
      <path d="m332.32,50.56l-51.32,25.22c-1.63.8-2.63,2.48-2.56,4.3l2.51,64.87c.04,1.15,1.3,1.84,2.3,1.27l26.56-15.25,22.51-80.41Z" style="fill: url(#linear-gradient-54); opacity: .2;"/>
    </g>
    <g>
      <g>
        <g>
          <g>
            <polygon points="276.11 272.71 356.41 237.49 431.63 273.53 353.58 306.92 276.11 272.71" style="fill: url(#linear-gradient-55);"/>
            <polyline points="354.35 305.76 355 384 278.93 350.19 276.11 272.71" style="fill: url(#linear-gradient-56);"/>
            <polygon points="354.29 305.82 355 384 430.36 348.08 431.77 273.42 354.29 305.82" style="fill: url(#linear-gradient-57);"/>
            <path d="m365.56,327.32l56.64-25.98c.72-.33,1.21-1.04,1.26-1.83l.93-14.79c.1-1.62-1.55-2.77-3.04-2.11l-57.44,25.56c-.77.34-1.28,1.11-1.28,1.96l-.12,15.2c-.01,1.58,1.62,2.64,3.06,1.98Z" style="fill: url(#linear-gradient-58);"/>
            <path d="m362.7,326.28c.49,1.02,1.73,1.54,2.86,1.03l56.64-25.99c.72-.33,1.2-1.03,1.25-1.83l.93-14.78c.09-1.36-1.07-2.4-2.32-2.3.16.32.23.68.21,1.08l-.93,14.78c-.05.8-.53,1.5-1.25,1.83l-56.64,25.99c-.25.1-.49.18-.75.19Z" style="fill: #1a1a1a;"/>
            <path d="m366.31,350.75l56.64-25.98c.72-.33,1.21-1.04,1.26-1.83l.93-14.79c.1-1.62-1.55-2.77-3.04-2.11l-57.44,25.56c-.77.34-1.28,1.11-1.28,1.96l-.12,15.2c-.01,1.58,1.62,2.64,3.06,1.98Z" style="fill: url(#linear-gradient-59);"/>
            <path d="m363.45,349.72c.49,1.02,1.73,1.54,2.86,1.03l56.64-25.99c.72-.33,1.2-1.03,1.25-1.83l.93-14.78c.09-1.36-1.07-2.4-2.32-2.3.16.32.23.68.21,1.08l-.93,14.78c-.05.8-.53,1.5-1.25,1.83l-56.64,25.99c-.25.1-.49.18-.75.19Z" style="fill: #1a1a1a;"/>
            <path d="m367.16,374.1l57.73-25.92c.72-.33,1.21-1.04,1.26-1.83l.93-14.79c.1-1.62-1.55-2.77-3.04-2.11l-58.53,25.5c-.77.34-1.28,1.11-1.28,1.96l-.12,15.2c-.01,1.58,1.62,2.64,3.06,1.98Z" style="fill: url(#linear-gradient-60);"/>
            <path d="m364.3,373.07c.49,1.02,1.73,1.54,2.86,1.03l57.73-25.92c.72-.33,1.2-1.03,1.25-1.83l.93-14.78c.09-1.36-1.07-2.4-2.32-2.3.16.32.23.68.21,1.08l-.93,14.78c-.05.8-.53,1.5-1.25,1.83l-57.73,25.92c-.25.1-.49.18-.75.19Z" style="fill: #1a1a1a;"/>
            <circle cx="368.72" cy="311.59" r="1.71"/>
            <circle cx="368.93" cy="318.28" r="1.71"/>
            <circle cx="376.87" cy="308.1" r="1.71"/>
            <circle cx="377.86" cy="314.4" r="1.71" style="fill: #a3ea2a;"/>
            <circle cx="385.02" cy="304.6" r="1.71" style="fill: #a3ea2a;"/>
            <circle cx="385.24" cy="311.29" r="1.71"/>
            <circle cx="393.18" cy="300.72" r="1.71" style="fill: #a3ea2a;"/>
            <circle cx="393.39" cy="307.41" r="1.71"/>
            <circle cx="401.33" cy="297.22" r="1.71" style="fill: #a3ea2a;"/>
            <circle cx="401.55" cy="303.91" r="1.71" style="fill: #1a1a1a;"/>
            <circle cx="409.49" cy="293.34" r="1.71"/>
            <circle cx="409.7" cy="300.42" r="1.71" style="fill: #a3ea2a;"/>
            <circle cx="417.26" cy="289.46" r="1.71" style="fill: #a3ea2a;"/>
            <circle cx="417.47" cy="296.15" r="1.71"/>
            <circle cx="369.49" cy="334.5" r="1.71"/>
            <circle cx="369.71" cy="341.19" r="1.71"/>
            <circle cx="377.65" cy="331.01" r="1.71" style="fill: #a3ea2a;"/>
            <circle cx="378.64" cy="337.31" r="1.71" style="fill: #a3ea2a;"/>
            <circle cx="385.8" cy="327.51" r="1.71"/>
            <circle cx="386.01" cy="334.2" r="1.71"/>
            <circle cx="393.96" cy="323.63" r="1.71" style="fill: #a3ea2a;"/>
            <circle cx="394.17" cy="330.32" r="1.71"/>
            <circle cx="402.11" cy="320.13" r="1.71"/>
            <circle cx="402.32" cy="326.82" r="1.71" style="fill: #a3ea2a;"/>
            <circle cx="410.27" cy="316.25" r="1.71" style="fill: #a3ea2a;"/>
            <circle cx="410.48" cy="323.33" r="1.71" style="fill: #a3ea2a;"/>
            <circle cx="418.03" cy="312.37" r="1.71"/>
            <circle cx="418.24" cy="319.06" r="1.71"/>
            <circle cx="371.43" cy="357.8" r="1.71"/>
            <circle cx="371.65" cy="364.49" r="1.71" style="fill: #a3ea2a;"/>
            <circle cx="379.59" cy="354.3" r="1.71"/>
            <circle cx="380.58" cy="360.61" r="1.71" style="fill: #a3ea2a;"/>
            <circle cx="387.74" cy="350.81" r="1.71" style="fill: #1a1a1a;"/>
            <circle cx="387.96" cy="357.5" r="1.71" style="fill: #a3ea2a;"/>
            <circle cx="395.9" cy="346.93" r="1.71" style="fill: #a3ea2a;"/>
            <circle cx="396.11" cy="353.62" r="1.71"/>
            <circle cx="404.05" cy="343.43" r="1.71"/>
            <circle cx="404.27" cy="350.12" r="1.71"/>
            <circle cx="412.21" cy="339.55" r="1.71"/>
            <circle cx="412.42" cy="346.63" r="1.71" style="fill: #1a1a1a;"/>
            <circle cx="419.97" cy="335.67" r="1.71" style="fill: #a3ea2a;"/>
            <circle cx="420.19" cy="342.35" r="1.71" style="fill: #a3ea2a;"/>
            <polygon points="280.47 277.99 283.97 347.41 350.07 377.66 350.07 307.23 280.47 277.99" style="fill: #272728;"/>
            <polygon points="280.47 277.99 283.21 279.02 286.14 346.76 283.97 347.41 280.47 277.99" style="fill: #1a1a1a;"/>
            <polygon points="286.14 346.76 350.07 376.25 350.07 377.66 283.97 347.41 286.14 346.76" style="fill: #1a1a1a;"/>
          </g>
          <g>
            <line x1="304.87" y1="351.94" x2="304.13" y2="324.81" style="fill: #eb0037;"/>
            <path d="m304.87,352.32c-.21,0-.38-.17-.39-.38l-.74-27.13c0-.21.16-.39.38-.4.22,0,.39.16.4.38l.74,27.13c0,.21-.16.39-.38.4,0,0,0,0-.01,0Z"/>
          </g>
          <g>
            <line x1="308.96" y1="353.79" x2="308.22" y2="326.67" style="fill: #eb0037;"/>
            <path d="m308.96,354.18c-.21,0-.38-.17-.39-.38l-.74-27.13c0-.21.16-.39.38-.4.21,0,.39.16.4.38l.74,27.13c0,.21-.16.39-.38.4,0,0,0,0-.01,0Z"/>
          </g>
          <g>
            <line x1="313.05" y1="355.65" x2="312.31" y2="328.53" style="fill: #eb0037;"/>
            <path d="m313.05,356.04c-.21,0-.38-.17-.39-.38l-.74-27.13c0-.21.16-.39.38-.4.21,0,.39.16.4.38l.74,27.13c0,.21-.16.39-.38.4,0,0,0,0-.01,0Z"/>
          </g>
          <g>
            <line x1="318.17" y1="357.54" x2="317.43" y2="330.42" style="fill: #eb0037;"/>
            <path d="m318.17,357.93c-.21,0-.38-.17-.39-.38l-.74-27.13c0-.21.16-.39.38-.4.22,0,.39.16.4.38l.74,27.13c0,.21-.16.39-.38.4,0,0,0,0-.01,0Z"/>
          </g>
          <g>
            <line x1="322.26" y1="359.4" x2="321.51" y2="332.28" style="fill: #eb0037;"/>
            <path d="m322.26,359.79c-.21,0-.38-.17-.39-.38l-.74-27.13c0-.21.16-.39.38-.4.22,0,.39.16.4.38l.74,27.13c0,.21-.16.39-.38.4,0,0,0,0-.01,0Z"/>
          </g>
          <g>
            <line x1="326.34" y1="361.63" x2="325.6" y2="334.51" style="fill: #eb0037;"/>
            <path d="m326.34,362.02c-.21,0-.38-.17-.39-.38l-.74-27.13c0-.21.16-.39.38-.4.22,0,.39.16.4.38l.74,27.13c0,.21-.16.39-.38.4,0,0,0,0-.01,0Z"/>
          </g>
          <g>
            <line x1="330.43" y1="363.86" x2="329.69" y2="336.74" style="fill: #eb0037;"/>
            <path d="m330.43,364.25c-.21,0-.38-.17-.39-.38l-.74-27.13c0-.21.16-.39.38-.4,0,0,0,0,.01,0,.21,0,.38.17.39.38l.74,27.13c0,.21-.16.39-.38.4,0,0,0,0-.01,0Z"/>
          </g>
          <g>
            <line x1="334.52" y1="365.72" x2="333.78" y2="338.59" style="fill: #eb0037;"/>
            <path d="m334.52,366.11c-.21,0-.38-.17-.39-.38l-.74-27.13c0-.21.16-.39.38-.4.22,0,.39.16.4.38l.74,27.13c0,.21-.16.39-.38.4,0,0,0,0-.01,0Z"/>
          </g>
          <g>
            <line x1="338.61" y1="367.58" x2="337.86" y2="340.45" style="fill: #eb0037;"/>
            <path d="m338.61,367.97c-.21,0-.38-.17-.39-.38l-.74-27.13c0-.21.16-.39.38-.4.22,0,.39.16.4.38l.74,27.13c0,.21-.16.39-.38.4,0,0,0,0-.01,0Z"/>
          </g>
          <polygon points="289.2 271.56 353.94 302.23 418.68 273.27 353.94 298.82 289.2 271.56" style="fill: #97afbf; opacity: .25;"/>
          <polygon points="285.79 271.56 355.64 240.89 418.68 271.56 355.64 242.6 285.79 271.56" style="fill: #97afbf; opacity: .25;"/>
        </g>
        <g>
          <line x1="292.61" y1="345.62" x2="291.87" y2="318.49" style="fill: #eb0037;"/>
          <path d="m292.61,346.01c-.21,0-.38-.17-.39-.38l-.74-27.13c0-.21.16-.39.38-.4.21,0,.39.16.4.38l.74,27.13c0,.21-.16.39-.38.4,0,0,0,0-.01,0Z"/>
        </g>
        <g>
          <line x1="296.7" y1="347.48" x2="295.96" y2="320.35" style="fill: #eb0037;"/>
          <path d="m296.7,347.86c-.21,0-.38-.17-.39-.38l-.74-27.13c0-.21.16-.39.38-.4.22,0,.39.16.4.38l.74,27.13c0,.21-.16.39-.38.4,0,0,0,0-.01,0Z"/>
        </g>
        <g>
          <line x1="300.79" y1="349.71" x2="300.04" y2="322.58" style="fill: #eb0037;"/>
          <path d="m300.79,350.09c-.21,0-.38-.17-.39-.38l-.74-27.13c0-.21.16-.39.38-.4.21,0,.39.16.4.38l.74,27.13c0,.21-.16.39-.38.4,0,0,0,0-.01,0Z"/>
        </g>
      </g>
      <g style="opacity: .5;">
        <g>
          <path d="m309.28,306.77c0,1.76-.24,3.19-.74,4.3-.5,1.11-1.21,1.9-2.14,2.38-.93.48-2.06.66-3.39.53-1.34-.13-2.84-.55-4.5-1.27-.76-.33-1.65-.75-2.66-1.26-1.01-.52-2.01-1.1-2.99-1.76l-.12-20.28c.98.26,2,.61,3.07,1.04,1.06.43,1.98.81,2.74,1.17,1.62.74,3.08,1.61,4.4,2.6,1.32.98,2.45,2.1,3.39,3.36.94,1.25,1.67,2.64,2.18,4.17.51,1.52.77,3.2.77,5.04Zm-12.21,1.21c.2.11.43.22.69.35.26.13.57.27.94.43,2.12.92,3.68,1.02,4.7.29,1.02-.73,1.52-2.12,1.51-4.17,0-2.14-.5-3.97-1.48-5.51-.98-1.53-2.53-2.78-4.66-3.75-.29-.13-.59-.26-.9-.4-.31-.13-.6-.24-.87-.32l.07,13.08Z" style="fill: #fff;"/>
          <path d="m323.51,322.76c-1.21-2.79-2.52-5.59-3.93-8.41-1.41-2.82-2.91-5.56-4.51-8.22l.03,13.27-4.17-1.71-.05-20.28,3.45,1.51c.6.89,1.26,1.95,1.98,3.18.72,1.23,1.46,2.52,2.21,3.88.75,1.36,1.5,2.75,2.24,4.18.74,1.43,1.44,2.79,2.09,4.09v-11.68s4.2,1.76,4.2,1.76v19.79s-3.54-1.38-3.54-1.38Z" style="fill: #fff;"/>
          <path d="m335.04,323.78c.59.22,1.08.36,1.47.4.39.04.7.02.93-.08.23-.09.4-.24.49-.46.09-.21.14-.47.14-.77,0-.64-.29-1.28-.86-1.92-.57-.64-1.56-1.48-2.96-2.51-.61-.46-1.22-.96-1.83-1.49-.61-.53-1.16-1.12-1.65-1.76-.49-.64-.88-1.33-1.19-2.09-.31-.76-.46-1.59-.46-2.49,0-.9.17-1.65.49-2.24.33-.59.79-1.02,1.38-1.28.6-.26,1.32-.35,2.17-.28.85.07,1.8.33,2.87.75,1.26.51,2.35,1.08,3.27,1.72.92.64,1.67,1.24,2.26,1.8l-1.23,2.93c-.52-.48-1.1-.95-1.74-1.41-.64-.46-1.41-.87-2.31-1.23-1.01-.4-1.73-.54-2.18-.43-.44.11-.66.47-.67,1.07,0,.36.08.69.24,1,.16.31.39.62.69.93.3.31.64.63,1.02.94.39.31.81.64,1.28.99.97.75,1.81,1.45,2.53,2.09.72.64,1.31,1.29,1.79,1.96.47.66.83,1.37,1.06,2.11.23.74.35,1.58.34,2.51,0,1.82-.62,3.01-1.84,3.57-1.22.57-3.06.4-5.52-.52-.83-.31-1.57-.64-2.24-1-.66-.36-1.25-.71-1.77-1.06-.51-.35-.95-.68-1.32-1-.37-.31-.68-.6-.93-.85l1.19-3.11c.56.54,1.25,1.1,2.06,1.67.82.57,1.82,1.08,3.01,1.53Z" style="fill: #fff;"/>
        </g>
      </g>
    </g>
    <g>
      <rect x="449.36" y="85.12" width="54.21" height="46.69" rx="6.21" ry="6.21" style="fill: #1c2538;"/>
      <path d="m470.98,104.34c.5-.21,1.01-.44,1.55-.71.54-.26,1.06-.56,1.58-.87.51-.32,1-.65,1.47-1,.47-.35.89-.72,1.27-1.12h2.67v17.77h-3.82v-12.79c-.51.34-1.09.65-1.72.94-.63.28-1.25.53-1.85.73l-1.15-2.95Z" style="fill: #a3ea2a;"/>
    </g>
    <g>
      <rect x="520.44" y="282.2" width="310.57" height="46.69" rx="6.21" ry="6.21" style="fill: #1c2538;"/>
      <g>
        <path d="m544.01,297.52c2.67,0,4.71.47,6.13,1.42,1.42.95,2.13,2.42,2.13,4.42,0,1.25-.29,2.26-.86,3.04-.57.78-1.4,1.39-2.47,1.83.36.44.74.95,1.13,1.53.39.57.78,1.17,1.17,1.79.38.62.76,1.27,1.12,1.95.36.68.69,1.34,1,1.99h-4.47c-.33-.58-.66-1.17-.99-1.77-.33-.6-.68-1.18-1.03-1.74s-.7-1.1-1.04-1.6c-.34-.5-.69-.96-1.03-1.37h-1.97v6.49h-4v-17.51c.87-.17,1.77-.29,2.71-.36.93-.07,1.76-.1,2.5-.1Zm.23,3.41c-.29,0-.55,0-.78.03-.23.02-.45.03-.65.05v4.82h1.13c1.5,0,2.58-.19,3.23-.56.65-.38.97-1.02.97-1.92s-.33-1.49-.99-1.86c-.66-.37-1.63-.55-2.91-.55Z" style="fill: #a3ea2a;"/>
        <path d="m554.36,308.85c0-1.2.18-2.24.55-3.14.37-.9.85-1.64,1.45-2.24s1.29-1.05,2.06-1.36,1.58-.46,2.4-.46c1.91,0,3.43.59,4.54,1.76,1.11,1.17,1.67,2.89,1.67,5.17,0,.22,0,.47-.03.73s-.03.5-.05.7h-8.67c.08.79.45,1.41,1.1,1.87.65.46,1.52.69,2.61.69.7,0,1.39-.06,2.06-.19.68-.13,1.23-.29,1.65-.47l.51,3.1c-.21.1-.48.21-.82.31-.34.1-.72.19-1.14.27-.42.08-.87.14-1.35.19s-.96.08-1.44.08c-1.21,0-2.27-.18-3.17-.54-.9-.36-1.64-.85-2.23-1.47s-1.03-1.36-1.31-2.22c-.28-.85-.42-1.78-.42-2.77Zm8.97-1.46c-.02-.32-.07-.64-.17-.95-.09-.31-.24-.58-.44-.82s-.44-.44-.74-.59-.67-.23-1.12-.23-.79.07-1.1.22-.56.34-.77.58c-.21.24-.36.52-.47.83-.11.32-.19.64-.24.96h5.05Z" style="fill: #a3ea2a;"/>
        <path d="m569.33,308.75c0-.97.16-1.89.47-2.76.32-.86.77-1.62,1.37-2.26.6-.64,1.32-1.15,2.18-1.53.85-.38,1.83-.56,2.92-.56.72,0,1.38.06,1.97.19.6.13,1.18.31,1.74.55l-.79,3.05c-.36-.14-.75-.26-1.18-.36-.43-.1-.91-.15-1.44-.15-1.13,0-1.97.35-2.52,1.05-.56.7-.83,1.62-.83,2.77,0,1.21.26,2.15.78,2.82s1.43,1,2.73,1c.46,0,.96-.04,1.49-.13.53-.09,1.02-.22,1.46-.41l.54,3.13c-.44.19-1,.35-1.67.49-.67.14-1.4.21-2.21.21-1.23,0-2.29-.18-3.18-.55s-1.62-.87-2.19-1.5c-.57-.63-.99-1.38-1.26-2.24-.26-.86-.4-1.8-.4-2.81Z" style="fill: #a3ea2a;"/>
        <path d="m594.3,315.03c-.65.19-1.49.36-2.51.53s-2.1.24-3.23.24-2.1-.15-2.86-.46-1.36-.74-1.81-1.29-.76-1.22-.95-1.99c-.19-.77-.28-1.62-.28-2.54v-7.51h3.82v7.05c0,1.23.16,2.12.49,2.67.32.55.93.82,1.82.82.27,0,.56-.01.87-.04.31-.03.58-.06.82-.09v-10.41h3.82v13.02Z" style="fill: #a3ea2a;"/>
        <path d="m606.02,305.39c-.34-.09-.74-.17-1.21-.27-.46-.09-.96-.14-1.49-.14-.24,0-.53.02-.86.06-.33.04-.58.09-.76.14v10.31h-3.82v-12.77c.68-.24,1.49-.47,2.42-.68.93-.21,1.97-.32,3.12-.32.21,0,.45.01.74.04.29.03.58.06.87.1.29.04.58.09.87.15.29.06.54.13.74.22l-.64,3.15Z" style="fill: #a3ea2a;"/>
        <path d="m612.58,312.74c.7,0,1.2-.07,1.49-.21.29-.14.44-.4.44-.79,0-.31-.19-.58-.56-.81-.38-.23-.95-.49-1.72-.78-.6-.22-1.14-.45-1.63-.69s-.9-.53-1.24-.86c-.34-.33-.61-.73-.79-1.19-.19-.46-.28-1.02-.28-1.67,0-1.26.47-2.26,1.41-3,.94-.73,2.23-1.1,3.87-1.1.82,0,1.61.07,2.36.22.75.15,1.35.3,1.79.47l-.67,2.97c-.44-.15-.93-.29-1.45-.41-.52-.12-1.11-.18-1.76-.18-1.2,0-1.79.33-1.79,1,0,.15.03.29.08.41.05.12.15.23.31.35.15.11.36.23.63.36.26.13.6.27,1.01.43.84.31,1.53.62,2.08.92.55.3.98.63,1.29.98.32.35.54.74.67,1.16.13.43.19.92.19,1.48,0,1.33-.5,2.34-1.5,3.02-1,.68-2.41,1.02-4.24,1.02-1.2,0-2.19-.1-2.99-.31s-1.35-.38-1.65-.51l.64-3.1c.65.26,1.32.46,2,.6.68.15,1.36.22,2.03.22Z" style="fill: #a3ea2a;"/>
        <path d="m625.32,298.11c0,.7-.23,1.25-.68,1.65-.45.4-.99.6-1.6.6s-1.15-.2-1.6-.6c-.45-.4-.68-.95-.68-1.65s.23-1.25.68-1.65c.45-.4.99-.6,1.6-.6s1.15.2,1.6.6c.45.4.68.95.68,1.65Zm-.36,17.38h-3.82v-13.48h3.82v13.48Z" style="fill: #a3ea2a;"/>
        <path d="m631.83,315.49c-.88-1.71-1.76-3.71-2.66-6-.9-2.29-1.75-4.79-2.56-7.49h4.05c.17.67.37,1.39.61,2.17.23.78.47,1.56.72,2.36.25.79.5,1.57.75,2.32s.49,1.44.73,2.05c.22-.62.46-1.3.72-2.05.26-.75.51-1.53.76-2.32.25-.79.49-1.58.72-2.36.23-.78.43-1.5.61-2.17h3.95c-.81,2.7-1.66,5.2-2.56,7.49-.9,2.29-1.79,4.29-2.66,6h-3.17Z" style="fill: #a3ea2a;"/>
        <path d="m641.24,308.85c0-1.2.18-2.24.55-3.14.37-.9.85-1.64,1.45-2.24s1.29-1.05,2.06-1.36,1.58-.46,2.4-.46c1.91,0,3.43.59,4.54,1.76,1.11,1.17,1.67,2.89,1.67,5.17,0,.22,0,.47-.03.73s-.03.5-.05.7h-8.67c.08.79.45,1.41,1.1,1.87.65.46,1.52.69,2.61.69.7,0,1.39-.06,2.06-.19.68-.13,1.23-.29,1.65-.47l.51,3.1c-.21.1-.48.21-.82.31-.34.1-.72.19-1.14.27-.42.08-.87.14-1.35.19s-.96.08-1.44.08c-1.21,0-2.27-.18-3.17-.54-.9-.36-1.64-.85-2.23-1.47s-1.03-1.36-1.31-2.22c-.28-.85-.42-1.78-.42-2.77Zm8.97-1.46c-.02-.32-.07-.64-.17-.95-.09-.31-.24-.58-.44-.82s-.44-.44-.74-.59-.67-.23-1.12-.23-.79.07-1.1.22-.56.34-.77.58c-.21.24-.36.52-.47.83-.11.32-.19.64-.24.96h5.05Z" style="fill: #a3ea2a;"/>
        <path d="m678.83,306.59c0,1.54-.24,2.88-.72,4.02-.48,1.15-1.16,2.09-2.04,2.85-.88.75-1.95,1.32-3.22,1.69-1.26.38-2.68.56-4.26.56-.72,0-1.55-.03-2.51-.09-.96-.06-1.9-.18-2.82-.37v-17.3c.92-.17,1.88-.29,2.88-.35,1-.06,1.86-.09,2.58-.09,1.52,0,2.9.17,4.14.51s2.3.88,3.19,1.61c.89.74,1.57,1.68,2.05,2.82.48,1.15.72,2.52.72,4.13Zm-11.56,5.64c.19.02.41.03.65.04.25,0,.54.01.88.01,2,0,3.48-.5,4.45-1.51.96-1.01,1.45-2.4,1.45-4.18s-.46-3.27-1.38-4.23-2.38-1.44-4.38-1.44c-.27,0-.56,0-.85.01-.29,0-.56.03-.82.06v11.23Z" style="fill: #a3ea2a;"/>
        <path d="m694.08,315.49c-1.15-2.03-2.38-4.04-3.72-6.02-1.33-1.98-2.75-3.85-4.26-5.61v11.64h-3.95v-17.77h3.26c.56.56,1.19,1.26,1.87,2.08.68.82,1.38,1.7,2.09,2.63.71.93,1.41,1.9,2.12,2.9.7,1,1.36,1.96,1.97,2.88v-10.48h3.97v17.77h-3.36Z" style="fill: #a3ea2a;"/>
        <path d="m706.38,312.44c.56,0,1.03-.05,1.4-.14.37-.09.66-.22.88-.38.22-.16.38-.35.46-.58.09-.22.13-.47.13-.74,0-.58-.27-1.06-.82-1.45-.55-.38-1.49-.8-2.82-1.24-.58-.21-1.16-.44-1.74-.71-.58-.26-1.1-.6-1.56-1-.46-.4-.84-.89-1.13-1.46-.29-.57-.44-1.27-.44-2.09s.15-1.56.46-2.22c.31-.66.74-1.22,1.31-1.68.56-.46,1.25-.82,2.05-1.06.8-.25,1.71-.37,2.72-.37,1.2,0,2.23.13,3.1.38.87.26,1.59.54,2.15.85l-1.15,3.15c-.5-.26-1.05-.48-1.65-.68-.61-.2-1.34-.29-2.19-.29-.96,0-1.65.13-2.06.4-.42.27-.63.67-.63,1.22,0,.32.08.6.23.82.15.22.37.42.65.6.28.18.61.34.97.49.37.15.77.29,1.22.45.92.34,1.73.68,2.41,1.01.68.33,1.25.72,1.71,1.17.45.44.79.97,1.01,1.56.22.6.33,1.32.33,2.18,0,1.66-.58,2.94-1.74,3.86-1.16.91-2.91,1.37-5.25,1.37-.79,0-1.5-.05-2.13-.14-.63-.09-1.19-.21-1.68-.35-.49-.14-.91-.28-1.26-.44-.35-.15-.65-.3-.88-.44l1.13-3.18c.53.29,1.18.55,1.96.78.78.23,1.73.35,2.86.35Z" style="fill: #a3ea2a;"/>
        <path d="m727.46,312.44c.56,0,1.03-.05,1.4-.14.37-.09.66-.22.88-.38.22-.16.38-.35.46-.58.09-.22.13-.47.13-.74,0-.58-.27-1.06-.82-1.45-.55-.38-1.49-.8-2.82-1.24-.58-.21-1.16-.44-1.74-.71-.58-.26-1.1-.6-1.56-1-.46-.4-.84-.89-1.13-1.46-.29-.57-.44-1.27-.44-2.09s.15-1.56.46-2.22c.31-.66.74-1.22,1.31-1.68.56-.46,1.25-.82,2.05-1.06.8-.25,1.71-.37,2.72-.37,1.2,0,2.23.13,3.1.38.87.26,1.59.54,2.15.85l-1.15,3.15c-.5-.26-1.05-.48-1.65-.68-.61-.2-1.34-.29-2.19-.29-.96,0-1.65.13-2.06.4-.42.27-.63.67-.63,1.22,0,.32.08.6.23.82.15.22.37.42.65.6.28.18.61.34.97.49.37.15.77.29,1.22.45.92.34,1.73.68,2.41,1.01.68.33,1.25.72,1.71,1.17.45.44.79.97,1.01,1.56.22.6.33,1.32.33,2.18,0,1.66-.58,2.94-1.74,3.86-1.16.91-2.91,1.37-5.25,1.37-.79,0-1.5-.05-2.13-.14-.63-.09-1.19-.21-1.68-.35-.49-.14-.91-.28-1.26-.44-.35-.15-.65-.3-.88-.44l1.13-3.18c.53.29,1.18.55,1.96.78.78.23,1.73.35,2.86.35Z" style="fill: #a3ea2a;"/>
        <path d="m736.63,308.85c0-1.2.18-2.24.55-3.14.37-.9.85-1.64,1.45-2.24s1.29-1.05,2.06-1.36,1.58-.46,2.4-.46c1.91,0,3.43.59,4.54,1.76,1.11,1.17,1.67,2.89,1.67,5.17,0,.22,0,.47-.03.73s-.03.5-.05.7h-8.67c.08.79.45,1.41,1.1,1.87.65.46,1.52.69,2.61.69.7,0,1.39-.06,2.06-.19.68-.13,1.23-.29,1.65-.47l.51,3.1c-.21.1-.48.21-.82.31-.34.1-.72.19-1.14.27-.42.08-.87.14-1.35.19s-.96.08-1.44.08c-1.21,0-2.27-.18-3.17-.54-.9-.36-1.64-.85-2.23-1.47s-1.03-1.36-1.31-2.22c-.28-.85-.42-1.78-.42-2.77Zm8.97-1.46c-.02-.32-.07-.64-.17-.95-.09-.31-.24-.58-.44-.82s-.44-.44-.74-.59-.67-.23-1.12-.23-.79.07-1.1.22-.56.34-.77.58c-.21.24-.36.52-.47.83-.11.32-.19.64-.24.96h5.05Z" style="fill: #a3ea2a;"/>
        <path d="m760.37,305.39c-.34-.09-.74-.17-1.21-.27-.46-.09-.96-.14-1.49-.14-.24,0-.53.02-.86.06-.33.04-.58.09-.76.14v10.31h-3.82v-12.77c.68-.24,1.49-.47,2.42-.68.93-.21,1.97-.32,3.12-.32.21,0,.45.01.74.04.29.03.58.06.87.1.29.04.58.09.87.15.29.06.54.13.74.22l-.64,3.15Z" style="fill: #a3ea2a;"/>
        <path d="m767.54,315.49c-.88-1.71-1.76-3.71-2.66-6-.9-2.29-1.75-4.79-2.56-7.49h4.05c.17.67.37,1.39.61,2.17.23.78.47,1.56.72,2.36.25.79.5,1.57.75,2.32s.49,1.44.73,2.05c.22-.62.46-1.3.72-2.05.26-.75.51-1.53.76-2.32.25-.79.49-1.58.72-2.36.23-.78.43-1.5.61-2.17h3.95c-.81,2.7-1.66,5.2-2.56,7.49-.9,2.29-1.79,4.29-2.66,6h-3.17Z" style="fill: #a3ea2a;"/>
        <path d="m776.96,308.85c0-1.2.18-2.24.55-3.14.37-.9.85-1.64,1.45-2.24s1.29-1.05,2.06-1.36,1.58-.46,2.4-.46c1.91,0,3.43.59,4.54,1.76,1.11,1.17,1.67,2.89,1.67,5.17,0,.22,0,.47-.03.73s-.03.5-.05.7h-8.67c.08.79.45,1.41,1.1,1.87.65.46,1.52.69,2.61.69.7,0,1.39-.06,2.06-.19.68-.13,1.23-.29,1.65-.47l.51,3.1c-.21.1-.48.21-.82.31-.34.1-.72.19-1.14.27-.42.08-.87.14-1.35.19s-.96.08-1.44.08c-1.21,0-2.27-.18-3.17-.54-.9-.36-1.64-.85-2.23-1.47s-1.03-1.36-1.31-2.22c-.28-.85-.42-1.78-.42-2.77Zm8.97-1.46c-.02-.32-.07-.64-.17-.95-.09-.31-.24-.58-.44-.82s-.44-.44-.74-.59-.67-.23-1.12-.23-.79.07-1.1.22-.56.34-.77.58c-.21.24-.36.52-.47.83-.11.32-.19.64-.24.96h5.05Z" style="fill: #a3ea2a;"/>
        <path d="m800.7,305.39c-.34-.09-.74-.17-1.21-.27-.46-.09-.96-.14-1.49-.14-.24,0-.53.02-.86.06-.33.04-.58.09-.76.14v10.31h-3.82v-12.77c.68-.24,1.49-.47,2.42-.68.93-.21,1.97-.32,3.12-.32.21,0,.45.01.74.04.29.03.58.06.87.1.29.04.58.09.87.15.29.06.54.13.74.22l-.64,3.15Z" style="fill: #a3ea2a;"/>
      </g>
      <rect x="449.36" y="281.03" width="54.21" height="46.69" rx="6.21" ry="6.21" style="fill: #1c2538;"/>
      <path d="m481.9,301.22c0,.65-.13,1.27-.38,1.87-.26.6-.59,1.18-1,1.73-.41.56-.87,1.09-1.38,1.6-.51.51-1.02,1-1.51,1.46-.26.24-.54.51-.83.81-.3.3-.59.6-.86.91s-.52.59-.73.86c-.21.27-.35.48-.4.65h7.64v3.2h-11.84c-.03-.19-.05-.43-.05-.72v-.62c0-.82.13-1.57.4-2.26s.61-1.32,1.04-1.91c.43-.59.91-1.14,1.45-1.65.54-.51,1.07-1.03,1.6-1.54.41-.39.79-.76,1.15-1.12.36-.35.67-.69.95-1.03.27-.33.49-.67.64-1,.15-.33.23-.67.23-1.01,0-.75-.21-1.28-.64-1.59-.43-.31-.96-.46-1.59-.46-.46,0-.89.07-1.29.22-.4.15-.77.32-1.1.51-.33.2-.62.39-.86.59-.24.2-.42.35-.54.47l-1.9-2.67c.75-.7,1.63-1.28,2.63-1.73,1-.45,2.07-.68,3.22-.68,1.04,0,1.94.12,2.69.36s1.37.58,1.86,1.01c.49.44.85.97,1.08,1.59.23.62.35,1.33.35,2.11Z" style="fill: #a3ea2a;"/>
    </g>
    <g>
      <circle cx="353.94" cy="504.35" r="69.33" style="fill: url(#radial-gradient);"/>
      <g id="Artwork_24" data-name="Artwork 24" style="opacity: .3;">
        <path d="m353.94,441.44c-34.69,0-62.91,28.22-62.91,62.91s28.22,62.91,62.91,62.91,62.91-28.22,62.91-62.91-28.22-62.91-62.91-62.91Zm-57.6,65.46h20.19c.18,7.31,1.09,14.29,2.63,20.76h-17.98c-2.83-6.4-4.5-13.41-4.84-20.76Zm60.11-31.63v-28.3c10.75,1.55,20.01,12.53,25.2,28.3h-25.2Zm26.91,5.44c1.67,6.54,2.66,13.69,2.87,21.25h-29.78v-21.25h26.91Zm-31.85-33.73v28.3h-25.2c5.2-15.77,14.46-26.74,25.2-28.3Zm0,33.73v21.25h-29.76c.19-7.54,1.19-14.71,2.87-21.25h26.9Zm-34.98,21.25h-20.18c.34-7.54,2.11-14.71,5.08-21.25h17.85c-1.63,6.6-2.57,13.77-2.75,21.25Zm5.17,4.94h29.81v20.76h-27.11c-1.58-6.4-2.51-13.41-2.7-20.76Zm29.81,26.19v28.91c-10.89-1.58-20.26-12.81-25.41-28.91h25.41Zm4.94,28.91v-28.91h25.41c-5.15,16.09-14.52,27.33-25.41,28.91Zm0-34.35v-20.76h29.81c-.18,7.36-1.11,14.35-2.7,20.76h-27.11Zm34.9-20.76h20.19c-.34,7.36-2,14.35-4.84,20.76h-17.98c1.54-6.47,2.44-13.45,2.63-20.76Zm0-4.94c-.19-7.49-1.14-14.65-2.75-21.25h17.85c2.97,6.54,4.73,13.71,5.08,21.25h-20.18Zm12.33-26.69h-16.47c-3.35-10.69-8.47-19.55-14.73-25.52,13.21,4.49,24.25,13.66,31.2,25.52Zm-68.27-25.52c-6.25,5.97-11.37,14.84-14.73,25.52h-16.47c6.95-11.86,17.99-21.03,31.2-25.52Zm-31.5,83.34h16.61c3.31,10.86,8.45,19.89,14.74,25.97-13.34-4.6-24.46-13.92-31.35-25.97Zm68.75,25.97c6.29-6.09,11.43-15.11,14.74-25.97h16.61c-6.91,12.06-18.02,21.38-31.35,25.97Z" style="fill: url(#radial-gradient-2);"/>
      </g>
      <g style="opacity: .2;">
        <path d="m319.15,527.66h-7.71l-5.67,5.44h14.73c.92,3.02,1.98,5.9,3.17,8.61l4.09-3.93c-.6-1.51-1.16-3.07-1.67-4.68h6.55l5.67-5.44h-13.92c-.83-3.37-1.48-6.91-1.94-10.57l-4.57,4.38c.35,2.11.77,4.18,1.25,6.19Z" style="fill: #fff;"/>
        <path d="m304.58,534.25l-3.82,3.66c3.35,5.28,7.46,10.04,12.18,14.1l3.72-3.57c-4.75-4.04-8.84-8.83-12.08-14.2Z" style="fill: #fff;"/>
        <path d="m389.68,452.6l-3.88,3.72c5.21,3.47,9.82,7.76,13.64,12.7l3.83-3.67c-3.87-4.89-8.46-9.19-13.59-12.75Z" style="fill: #fff;"/>
        <polygon points="356.45 510.26 356.45 506.9 359.96 506.9 365.11 501.96 356.45 501.96 356.45 484.48 351.51 489.22 351.51 501.96 338.23 501.96 333.08 506.9 351.51 506.9 351.51 515.01 356.45 510.26" style="fill: #fff;"/>
        <path d="m381.02,460.9l-3.87,3.72c1.72,3.22,3.24,6.79,4.51,10.65h-15.61l-5.67,5.44h22.98c.26,1,.49,2.02.72,3.05l8.84-8.48h-5.72c-1.65-5.28-3.74-10.11-6.18-14.37Z" style="fill: #fff;"/>
      </g>
      <g>
        <path d="m338.01,504.4c0,3.37-.52,6.3-1.57,8.81-1.05,2.51-2.54,4.58-4.46,6.23-1.93,1.65-4.27,2.88-7.04,3.7-2.77.82-5.87,1.23-9.32,1.23-1.57,0-3.41-.07-5.5-.2-2.1-.13-4.15-.4-6.17-.81v-37.88c2.02-.37,4.12-.63,6.31-.76,2.19-.13,4.07-.2,5.64-.2,3.33,0,6.35.37,9.06,1.12,2.71.75,5.04,1.93,6.99,3.54,1.94,1.61,3.44,3.67,4.49,6.17,1.05,2.51,1.57,5.52,1.57,9.04Zm-25.31,12.35c.41.04.89.07,1.43.08.54.02,1.19.03,1.94.03,4.38,0,7.62-1.1,9.74-3.31,2.11-2.21,3.17-5.26,3.17-9.15s-1.01-7.16-3.03-9.26c-2.02-2.09-5.22-3.14-9.6-3.14-.6,0-1.22,0-1.85.03-.64.02-1.23.07-1.8.14v24.58Z" style="fill: #fff;"/>
        <path d="m367.48,523.88c-2.51-4.45-5.22-8.85-8.14-13.19-2.92-4.34-6.02-8.44-9.32-12.29v25.48h-8.64v-38.89h7.13c1.23,1.23,2.6,2.75,4.1,4.55,1.5,1.8,3.02,3.71,4.57,5.75,1.55,2.04,3.1,4.15,4.63,6.34,1.53,2.19,2.97,4.29,4.32,6.31v-22.95h8.7v38.89h-7.35Z" style="fill: #fff;"/>
        <path d="m391.47,517.2c1.23,0,2.25-.1,3.06-.31.8-.21,1.45-.49,1.94-.84.49-.36.82-.78,1.01-1.26.19-.49.28-1.03.28-1.63,0-1.27-.6-2.33-1.8-3.17-1.2-.84-3.26-1.75-6.17-2.72-1.27-.45-2.54-.96-3.82-1.54-1.27-.58-2.41-1.31-3.42-2.19-1.01-.88-1.83-1.94-2.47-3.2-.64-1.25-.95-2.78-.95-4.57s.34-3.41,1.01-4.85c.67-1.44,1.63-2.67,2.86-3.68s2.73-1.79,4.49-2.33c1.76-.54,3.74-.81,5.95-.81,2.62,0,4.88.28,6.79.84,1.91.56,3.48,1.18,4.71,1.85l-2.53,6.9c-1.09-.56-2.29-1.06-3.62-1.49-1.33-.43-2.93-.65-4.8-.65-2.1,0-3.6.29-4.52.87-.92.58-1.37,1.47-1.37,2.67,0,.71.17,1.31.51,1.8.34.49.81.93,1.43,1.32.62.39,1.33.75,2.13,1.07.8.32,1.69.65,2.67.98,2.02.75,3.78,1.49,5.28,2.22,1.5.73,2.74,1.58,3.73,2.55.99.97,1.73,2.11,2.22,3.42.49,1.31.73,2.9.73,4.77,0,3.63-1.27,6.45-3.82,8.45-2.54,2-6.38,3-11.5,3-1.72,0-3.27-.1-4.66-.31-1.38-.21-2.61-.46-3.68-.76s-1.98-.62-2.75-.95c-.77-.34-1.41-.65-1.94-.95l2.47-6.96c1.16.64,2.59,1.21,4.29,1.71,1.7.51,3.79.76,6.26.76Z" style="fill: #fff;"/>
      </g>
    </g>
    <g>
      <rect x="449.36" y="478.11" width="54.21" height="46.69" rx="6.21" ry="6.21" style="fill: #1c2538;"/>
      <path d="m475.03,511.78c-.46,0-.95-.03-1.46-.09-.51-.06-1.01-.14-1.49-.24-.48-.1-.91-.21-1.31-.33-.39-.12-.7-.23-.92-.33l.74-3.18c.44.19,1.01.39,1.71.6.69.21,1.55.32,2.58.32,1.18,0,2.04-.22,2.59-.67.55-.44.82-1.04.82-1.79,0-.46-.1-.85-.29-1.17-.2-.32-.47-.57-.81-.77s-.75-.33-1.22-.41c-.47-.08-.97-.12-1.5-.12h-1.49v-3.08h1.69c.38,0,.74-.03,1.09-.1.35-.07.66-.18.94-.35.27-.16.49-.38.65-.67.16-.28.24-.64.24-1.06,0-.32-.07-.61-.21-.85s-.31-.44-.53-.59c-.21-.15-.46-.27-.74-.35-.28-.08-.57-.12-.86-.12-.74,0-1.42.11-2.04.33-.62.22-1.19.5-1.71.82l-1.36-2.79c.27-.17.59-.35.96-.54.37-.19.77-.36,1.22-.51.44-.15.92-.28,1.42-.38.5-.1,1.04-.15,1.6-.15,1.04,0,1.94.12,2.7.37.76.25,1.39.6,1.88,1.05.5.45.86.98,1.1,1.59s.36,1.27.36,1.98-.2,1.38-.59,2.04c-.39.66-.92,1.16-1.59,1.5.92.38,1.64.94,2.14,1.68s.76,1.64.76,2.68c0,.82-.14,1.58-.41,2.27s-.7,1.29-1.28,1.8-1.32.9-2.22,1.18c-.9.28-1.96.42-3.19.42Z" style="fill: #a3ea2a;"/>
      <rect x="520.44" y="478.11" width="310.57" height="46.69" rx="6.21" ry="6.21" style="fill: #1c2538;"/>
      <g>
        <path d="m544.01,493.43c2.67,0,4.71.47,6.13,1.42s2.13,2.42,2.13,4.42c0,1.25-.29,2.26-.86,3.04-.57.78-1.4,1.39-2.47,1.83.36.44.74.95,1.13,1.53.39.57.78,1.17,1.17,1.79.38.62.76,1.27,1.12,1.95.36.67.69,1.34,1,1.99h-4.47c-.33-.58-.66-1.17-.99-1.77-.33-.6-.68-1.18-1.03-1.74-.35-.56-.7-1.1-1.04-1.6-.34-.5-.69-.96-1.03-1.37h-1.97v6.49h-4v-17.51c.87-.17,1.77-.29,2.71-.36.93-.07,1.76-.1,2.5-.1Zm.23,3.41c-.29,0-.55,0-.78.03-.23.02-.45.03-.65.05v4.82h1.13c1.5,0,2.58-.19,3.23-.56s.97-1.02.97-1.92-.33-1.49-.99-1.86c-.66-.37-1.63-.55-2.91-.55Z" style="fill: #a3ea2a;"/>
        <path d="m567.62,504.63c0,1.06-.15,2.03-.46,2.91-.31.88-.75,1.63-1.33,2.26-.58.62-1.28,1.11-2.09,1.45-.81.34-1.72.51-2.73.51s-1.89-.17-2.7-.51c-.81-.34-1.51-.82-2.09-1.45-.58-.62-1.03-1.38-1.36-2.26-.33-.88-.49-1.85-.49-2.91s.17-2.03.5-2.9c.33-.87.79-1.62,1.38-2.23s1.29-1.09,2.1-1.44c.81-.34,1.7-.51,2.65-.51s1.87.17,2.68.51c.81.34,1.51.82,2.09,1.44s1.03,1.36,1.36,2.23c.33.87.49,1.84.49,2.9Zm-3.9,0c0-1.18-.24-2.11-.71-2.78-.47-.67-1.14-1.01-2.01-1.01s-1.55.34-2.02,1.01c-.48.68-.72,1.6-.72,2.78s.24,2.11.72,2.81c.48.69,1.15,1.04,2.02,1.04s1.54-.35,2.01-1.04.71-1.63.71-2.81Z" style="fill: #a3ea2a;"/>
        <path d="m583.18,504.63c0,1.06-.15,2.03-.46,2.91-.31.88-.75,1.63-1.33,2.26-.58.62-1.28,1.11-2.09,1.45-.81.34-1.72.51-2.73.51s-1.89-.17-2.7-.51c-.81-.34-1.51-.82-2.09-1.45-.58-.62-1.03-1.38-1.36-2.26-.33-.88-.49-1.85-.49-2.91s.17-2.03.5-2.9c.33-.87.79-1.62,1.38-2.23s1.29-1.09,2.1-1.44c.81-.34,1.7-.51,2.65-.51s1.87.17,2.68.51c.81.34,1.51.82,2.09,1.44s1.03,1.36,1.36,2.23c.33.87.49,1.84.49,2.9Zm-3.9,0c0-1.18-.24-2.11-.71-2.78-.47-.67-1.14-1.01-2.01-1.01s-1.55.34-2.02,1.01c-.48.68-.72,1.6-.72,2.78s.24,2.11.72,2.81c.48.69,1.15,1.04,2.02,1.04s1.54-.35,2.01-1.04.71-1.63.71-2.81Z" style="fill: #a3ea2a;"/>
        <path d="m586,494.56l3.82-.62v3.97h4.59v3.18h-4.59v4.74c0,.8.14,1.45.42,1.92.28.48.85.72,1.71.72.41,0,.83-.04,1.27-.12s.83-.18,1.19-.32l.54,2.97c-.46.19-.97.35-1.54.49-.56.14-1.26.21-2.08.21-1.04,0-1.91-.14-2.59-.42s-1.23-.67-1.64-1.18c-.41-.5-.7-1.12-.86-1.83-.16-.72-.24-1.51-.24-2.38v-11.33Z" style="fill: #a3ea2a;"/>
        <path d="m619.48,502.5c0,1.54-.24,2.88-.72,4.02-.48,1.15-1.16,2.09-2.04,2.85-.88.75-1.95,1.32-3.22,1.69-1.26.38-2.68.56-4.26.56-.72,0-1.55-.03-2.51-.09-.96-.06-1.9-.18-2.82-.37v-17.3c.92-.17,1.88-.29,2.88-.35,1-.06,1.86-.09,2.58-.09,1.52,0,2.9.17,4.14.51s2.3.88,3.19,1.62c.89.73,1.57,1.67,2.05,2.82.48,1.15.72,2.52.72,4.13Zm-11.56,5.64c.19.02.41.03.65.04.25,0,.54.01.88.01,2,0,3.48-.5,4.45-1.51.96-1.01,1.45-2.4,1.45-4.18s-.46-3.27-1.38-4.23c-.92-.96-2.38-1.44-4.38-1.44-.27,0-.56,0-.85.01-.29,0-.56.03-.82.06v11.23Z" style="fill: #a3ea2a;"/>
        <path d="m634.73,511.4c-1.15-2.03-2.38-4.04-3.72-6.02-1.33-1.98-2.75-3.85-4.26-5.61v11.64h-3.95v-17.77h3.26c.56.56,1.19,1.26,1.87,2.08s1.38,1.7,2.09,2.63c.71.93,1.41,1.9,2.12,2.9.7,1,1.36,1.96,1.97,2.88v-10.49h3.97v17.77h-3.36Z" style="fill: #a3ea2a;"/>
        <path d="m647.04,508.35c.56,0,1.03-.05,1.4-.14s.66-.22.88-.38c.22-.16.38-.35.46-.58.09-.22.13-.47.13-.74,0-.58-.27-1.06-.82-1.45-.55-.38-1.49-.8-2.82-1.24-.58-.21-1.16-.44-1.74-.71s-1.1-.6-1.56-1c-.46-.4-.84-.89-1.13-1.46-.29-.57-.44-1.27-.44-2.09s.15-1.56.46-2.22c.31-.66.74-1.22,1.31-1.68.56-.46,1.25-.82,2.05-1.06.8-.25,1.71-.37,2.72-.37,1.2,0,2.23.13,3.1.38.87.26,1.59.54,2.15.85l-1.15,3.15c-.5-.26-1.05-.48-1.65-.68-.61-.2-1.34-.29-2.19-.29-.96,0-1.65.13-2.06.4-.42.27-.63.67-.63,1.22,0,.33.08.6.23.82.15.22.37.42.65.6s.61.34.97.49c.37.15.77.29,1.22.45.92.34,1.73.68,2.41,1.01s1.25.72,1.71,1.17c.45.44.79.97,1.01,1.56.22.6.33,1.32.33,2.18,0,1.66-.58,2.94-1.74,3.86-1.16.92-2.91,1.37-5.25,1.37-.79,0-1.5-.05-2.13-.14-.63-.09-1.19-.21-1.68-.35-.49-.14-.91-.28-1.26-.44-.35-.15-.65-.3-.88-.44l1.13-3.18c.53.29,1.18.55,1.96.78.78.23,1.73.35,2.86.35Z" style="fill: #a3ea2a;"/>
        <path d="m668.11,508.35c.56,0,1.03-.05,1.4-.14s.66-.22.88-.38c.22-.16.38-.35.46-.58.09-.22.13-.47.13-.74,0-.58-.27-1.06-.82-1.45-.55-.38-1.49-.8-2.82-1.24-.58-.21-1.16-.44-1.74-.71s-1.1-.6-1.56-1c-.46-.4-.84-.89-1.13-1.46-.29-.57-.44-1.27-.44-2.09s.15-1.56.46-2.22c.31-.66.74-1.22,1.31-1.68.56-.46,1.25-.82,2.05-1.06.8-.25,1.71-.37,2.72-.37,1.2,0,2.23.13,3.1.38.87.26,1.59.54,2.15.85l-1.15,3.15c-.5-.26-1.05-.48-1.65-.68-.61-.2-1.34-.29-2.19-.29-.96,0-1.65.13-2.06.4-.42.27-.63.67-.63,1.22,0,.33.08.6.23.82.15.22.37.42.65.6s.61.34.97.49c.37.15.77.29,1.22.45.92.34,1.73.68,2.41,1.01s1.25.72,1.71,1.17c.45.44.79.97,1.01,1.56.22.6.33,1.32.33,2.18,0,1.66-.58,2.94-1.74,3.86-1.16.92-2.91,1.37-5.25,1.37-.79,0-1.5-.05-2.13-.14-.63-.09-1.19-.21-1.68-.35-.49-.14-.91-.28-1.26-.44-.35-.15-.65-.3-.88-.44l1.13-3.18c.53.29,1.18.55,1.96.78.78.23,1.73.35,2.86.35Z" style="fill: #a3ea2a;"/>
        <path d="m677.29,504.76c0-1.2.18-2.24.55-3.14.37-.9.85-1.64,1.45-2.24s1.29-1.05,2.06-1.36,1.58-.46,2.4-.46c1.91,0,3.43.59,4.54,1.76,1.11,1.17,1.67,2.89,1.67,5.17,0,.22,0,.47-.03.73-.02.27-.03.5-.05.71h-8.67c.08.79.45,1.41,1.1,1.87.65.46,1.52.69,2.61.69.7,0,1.39-.06,2.06-.19.68-.13,1.23-.29,1.65-.47l.51,3.1c-.21.1-.48.21-.82.31-.34.1-.72.19-1.14.27s-.87.14-1.35.19c-.48.05-.96.08-1.44.08-1.21,0-2.27-.18-3.17-.54-.9-.36-1.64-.85-2.23-1.47s-1.03-1.36-1.31-2.22c-.28-.85-.42-1.78-.42-2.77Zm8.97-1.46c-.02-.33-.07-.64-.17-.95-.09-.31-.24-.58-.44-.82-.2-.24-.44-.44-.74-.59-.3-.15-.67-.23-1.12-.23s-.79.07-1.1.22c-.31.15-.56.34-.77.58s-.36.52-.47.83c-.11.32-.19.64-.24.96h5.05Z" style="fill: #a3ea2a;"/>
        <path d="m701.02,501.3c-.34-.08-.74-.17-1.21-.27-.46-.09-.96-.14-1.49-.14-.24,0-.53.02-.86.06-.33.04-.58.09-.76.14v10.31h-3.82v-12.77c.68-.24,1.49-.47,2.42-.68.93-.21,1.97-.32,3.12-.32.21,0,.45.01.74.04.29.03.58.06.87.1.29.04.58.09.87.15s.54.13.74.22l-.64,3.15Z" style="fill: #a3ea2a;"/>
        <path d="m708.2,511.4c-.88-1.71-1.76-3.71-2.66-6-.9-2.29-1.75-4.79-2.56-7.49h4.05c.17.67.37,1.39.61,2.17.23.78.47,1.56.72,2.36s.5,1.57.75,2.32.49,1.44.73,2.05c.22-.62.46-1.3.72-2.05.26-.75.51-1.53.76-2.32.25-.79.49-1.58.72-2.36.23-.78.43-1.5.61-2.17h3.95c-.81,2.7-1.66,5.2-2.56,7.49-.9,2.29-1.79,4.29-2.66,6h-3.17Z" style="fill: #a3ea2a;"/>
        <path d="m717.61,504.76c0-1.2.18-2.24.55-3.14.37-.9.85-1.64,1.45-2.24s1.29-1.05,2.06-1.36,1.58-.46,2.4-.46c1.91,0,3.43.59,4.54,1.76,1.11,1.17,1.67,2.89,1.67,5.17,0,.22,0,.47-.03.73-.02.27-.03.5-.05.71h-8.67c.08.79.45,1.41,1.1,1.87.65.46,1.52.69,2.61.69.7,0,1.39-.06,2.06-.19.68-.13,1.23-.29,1.65-.47l.51,3.1c-.21.1-.48.21-.82.31-.34.1-.72.19-1.14.27s-.87.14-1.35.19c-.48.05-.96.08-1.44.08-1.21,0-2.27-.18-3.17-.54-.9-.36-1.64-.85-2.23-1.47s-1.03-1.36-1.31-2.22c-.28-.85-.42-1.78-.42-2.77Zm8.97-1.46c-.02-.33-.07-.64-.17-.95-.09-.31-.24-.58-.44-.82-.2-.24-.44-.44-.74-.59-.3-.15-.67-.23-1.12-.23s-.79.07-1.1.22c-.31.15-.56.34-.77.58s-.36.52-.47.83c-.11.32-.19.64-.24.96h5.05Z" style="fill: #a3ea2a;"/>
        <path d="m741.35,501.3c-.34-.08-.74-.17-1.21-.27-.46-.09-.96-.14-1.49-.14-.24,0-.53.02-.86.06-.33.04-.58.09-.76.14v10.31h-3.82v-12.77c.68-.24,1.49-.47,2.42-.68.93-.21,1.97-.32,3.12-.32.21,0,.45.01.74.04.29.03.58.06.87.1.29.04.58.09.87.15s.54.13.74.22l-.64,3.15Z" style="fill: #a3ea2a;"/>
      </g>
    </g>
    <g>
      <g>
        <g>
          <g>
            <polygon points="276.11 659.91 356.41 624.69 431.63 660.73 353.58 694.12 276.11 659.91" style="fill: url(#linear-gradient-61);"/>
            <polyline points="354.35 692.96 355 771.2 278.93 737.39 276.11 659.91" style="fill: url(#linear-gradient-62);"/>
            <polygon points="354.29 693.02 355 771.2 430.36 735.28 431.77 660.62 354.29 693.02" style="fill: url(#linear-gradient-63);"/>
            <path d="m365.56,714.52l56.64-25.98c.72-.33,1.21-1.04,1.26-1.83l.93-14.79c.1-1.62-1.55-2.77-3.04-2.11l-57.44,25.56c-.77.34-1.28,1.11-1.28,1.96l-.12,15.2c-.01,1.58,1.62,2.64,3.06,1.98Z" style="fill: url(#linear-gradient-64);"/>
            <path d="m362.7,713.49c.49,1.02,1.73,1.54,2.86,1.03l56.64-25.99c.72-.33,1.2-1.03,1.25-1.83l.93-14.78c.09-1.36-1.07-2.4-2.32-2.3.16.32.23.68.21,1.08l-.93,14.78c-.05.8-.53,1.5-1.25,1.83l-56.64,25.99c-.25.1-.49.18-.75.19Z" style="fill: #1a1a1a;"/>
            <path d="m366.31,737.95l56.64-25.98c.72-.33,1.21-1.04,1.26-1.83l.93-14.79c.1-1.62-1.55-2.77-3.04-2.11l-57.44,25.56c-.77.34-1.28,1.11-1.28,1.96l-.12,15.2c-.01,1.58,1.62,2.64,3.06,1.98Z" style="fill: url(#linear-gradient-65);"/>
            <path d="m363.45,736.92c.49,1.02,1.73,1.54,2.86,1.03l56.64-25.99c.72-.33,1.2-1.03,1.25-1.83l.93-14.78c.09-1.36-1.07-2.4-2.32-2.3.16.32.23.68.21,1.08l-.93,14.78c-.05.8-.53,1.5-1.25,1.83l-56.64,25.99c-.25.1-.49.18-.75.19Z" style="fill: #1a1a1a;"/>
            <path d="m367.16,761.3l57.73-25.92c.72-.33,1.21-1.04,1.26-1.83l.93-14.79c.1-1.62-1.55-2.77-3.04-2.11l-58.53,25.5c-.77.34-1.28,1.11-1.28,1.96l-.12,15.2c-.01,1.58,1.62,2.64,3.06,1.98Z" style="fill: url(#linear-gradient-66);"/>
            <path d="m364.3,760.27c.49,1.02,1.73,1.54,2.86,1.03l57.73-25.92c.72-.33,1.2-1.03,1.25-1.83l.93-14.78c.09-1.36-1.07-2.4-2.32-2.3.16.32.23.68.21,1.08l-.93,14.78c-.05.8-.53,1.5-1.25,1.83l-57.73,25.92c-.25.1-.49.18-.75.19Z" style="fill: #1a1a1a;"/>
            <circle cx="368.72" cy="698.79" r="1.71"/>
            <circle cx="368.93" cy="705.48" r="1.71"/>
            <circle cx="376.87" cy="695.3" r="1.71"/>
            <circle cx="377.86" cy="701.6" r="1.71" style="fill: #a3ea2a;"/>
            <circle cx="385.02" cy="691.8" r="1.71" style="fill: #a3ea2a;"/>
            <circle cx="385.24" cy="698.49" r="1.71"/>
            <circle cx="393.18" cy="687.92" r="1.71" style="fill: #a3ea2a;"/>
            <circle cx="393.39" cy="694.61" r="1.71"/>
            <circle cx="401.33" cy="684.42" r="1.71" style="fill: #a3ea2a;"/>
            <circle cx="401.55" cy="691.11" r="1.71" style="fill: #1a1a1a;"/>
            <circle cx="409.49" cy="680.54" r="1.71"/>
            <circle cx="409.7" cy="687.62" r="1.71" style="fill: #a3ea2a;"/>
            <circle cx="417.26" cy="676.66" r="1.71" style="fill: #a3ea2a;"/>
            <circle cx="417.47" cy="683.35" r="1.71"/>
            <circle cx="369.49" cy="721.7" r="1.71"/>
            <circle cx="369.71" cy="728.39" r="1.71"/>
            <circle cx="377.65" cy="718.21" r="1.71" style="fill: #a3ea2a;"/>
            <circle cx="378.64" cy="724.51" r="1.71" style="fill: #a3ea2a;"/>
            <circle cx="385.8" cy="714.71" r="1.71"/>
            <circle cx="386.01" cy="721.4" r="1.71"/>
            <circle cx="393.96" cy="710.83" r="1.71" style="fill: #a3ea2a;"/>
            <circle cx="394.17" cy="717.52" r="1.71"/>
            <circle cx="402.11" cy="707.33" r="1.71"/>
            <circle cx="402.32" cy="714.02" r="1.71" style="fill: #a3ea2a;"/>
            <circle cx="410.27" cy="703.45" r="1.71" style="fill: #a3ea2a;"/>
            <circle cx="410.48" cy="710.53" r="1.71" style="fill: #a3ea2a;"/>
            <circle cx="418.03" cy="699.57" r="1.71"/>
            <circle cx="418.24" cy="706.26" r="1.71"/>
            <circle cx="371.43" cy="745" r="1.71"/>
            <circle cx="371.65" cy="751.69" r="1.71" style="fill: #a3ea2a;"/>
            <circle cx="379.59" cy="741.51" r="1.71"/>
            <circle cx="380.58" cy="747.81" r="1.71" style="fill: #a3ea2a;"/>
            <circle cx="387.74" cy="738.01" r="1.71" style="fill: #1a1a1a;"/>
            <circle cx="387.96" cy="744.7" r="1.71" style="fill: #a3ea2a;"/>
            <circle cx="395.9" cy="734.13" r="1.71" style="fill: #a3ea2a;"/>
            <circle cx="396.11" cy="740.82" r="1.71"/>
            <circle cx="404.05" cy="730.63" r="1.71"/>
            <circle cx="404.27" cy="737.32" r="1.71"/>
            <circle cx="412.21" cy="726.75" r="1.71"/>
            <circle cx="412.42" cy="733.83" r="1.71" style="fill: #1a1a1a;"/>
            <circle cx="419.97" cy="722.87" r="1.71" style="fill: #a3ea2a;"/>
            <circle cx="420.19" cy="729.56" r="1.71" style="fill: #a3ea2a;"/>
            <polygon points="280.47 665.19 283.97 734.61 350.07 764.86 350.07 694.43 280.47 665.19" style="fill: #272728;"/>
            <polygon points="280.47 665.19 283.21 666.22 286.14 733.96 283.97 734.61 280.47 665.19" style="fill: #1a1a1a;"/>
            <polygon points="286.14 733.96 350.07 763.45 350.07 764.86 283.97 734.61 286.14 733.96" style="fill: #1a1a1a;"/>
          </g>
          <g>
            <line x1="304.87" y1="739.14" x2="304.13" y2="712.01" style="fill: #eb0037;"/>
            <path d="m304.87,739.52c-.21,0-.38-.17-.39-.38l-.74-27.13c0-.21.16-.39.38-.4.22,0,.39.16.4.38l.74,27.13c0,.21-.16.39-.38.4,0,0,0,0-.01,0Z"/>
          </g>
          <g>
            <line x1="308.96" y1="740.99" x2="308.22" y2="713.87" style="fill: #eb0037;"/>
            <path d="m308.96,741.38c-.21,0-.38-.17-.39-.38l-.74-27.13c0-.21.16-.39.38-.4.21,0,.39.16.4.38l.74,27.13c0,.21-.16.39-.38.4,0,0,0,0-.01,0Z"/>
          </g>
          <g>
            <line x1="313.05" y1="742.85" x2="312.31" y2="715.73" style="fill: #eb0037;"/>
            <path d="m313.05,743.24c-.21,0-.38-.17-.39-.38l-.74-27.13c0-.21.16-.39.38-.4.21,0,.39.16.4.38l.74,27.13c0,.21-.16.39-.38.4,0,0,0,0-.01,0Z"/>
          </g>
          <g>
            <line x1="318.17" y1="744.74" x2="317.43" y2="717.62" style="fill: #eb0037;"/>
            <path d="m318.17,745.13c-.21,0-.38-.17-.39-.38l-.74-27.13c0-.21.16-.39.38-.4.22,0,.39.16.4.38l.74,27.13c0,.21-.16.39-.38.4,0,0,0,0-.01,0Z"/>
          </g>
          <g>
            <line x1="322.26" y1="746.6" x2="321.51" y2="719.48" style="fill: #eb0037;"/>
            <path d="m322.26,746.99c-.21,0-.38-.17-.39-.38l-.74-27.13c0-.21.16-.39.38-.4.22,0,.39.16.4.38l.74,27.13c0,.21-.16.39-.38.4,0,0,0,0-.01,0Z"/>
          </g>
          <g>
            <line x1="326.34" y1="748.83" x2="325.6" y2="721.71" style="fill: #eb0037;"/>
            <path d="m326.34,749.22c-.21,0-.38-.17-.39-.38l-.74-27.13c0-.21.16-.39.38-.4.22,0,.39.16.4.38l.74,27.13c0,.21-.16.39-.38.4,0,0,0,0-.01,0Z"/>
          </g>
          <g>
            <line x1="330.43" y1="751.06" x2="329.69" y2="723.94" style="fill: #eb0037;"/>
            <path d="m330.43,751.45c-.21,0-.38-.17-.39-.38l-.74-27.13c0-.21.16-.39.38-.4,0,0,0,0,.01,0,.21,0,.38.17.39.38l.74,27.13c0,.21-.16.39-.38.4,0,0,0,0-.01,0Z"/>
          </g>
          <g>
            <line x1="334.52" y1="752.92" x2="333.78" y2="725.79" style="fill: #eb0037;"/>
            <path d="m334.52,753.31c-.21,0-.38-.17-.39-.38l-.74-27.13c0-.21.16-.39.38-.4.22,0,.39.16.4.38l.74,27.13c0,.21-.16.39-.38.4,0,0,0,0-.01,0Z"/>
          </g>
          <g>
            <line x1="338.61" y1="754.78" x2="337.86" y2="727.65" style="fill: #eb0037;"/>
            <path d="m338.61,755.17c-.21,0-.38-.17-.39-.38l-.74-27.13c0-.21.16-.39.38-.4.22,0,.39.16.4.38l.74,27.13c0,.21-.16.39-.38.4,0,0,0,0-.01,0Z"/>
          </g>
          <polygon points="289.2 658.76 353.94 689.43 418.68 660.47 353.94 686.02 289.2 658.76" style="fill: #97afbf; opacity: .25;"/>
          <polygon points="285.79 658.76 355.64 628.09 418.68 658.76 355.64 629.8 285.79 658.76" style="fill: #97afbf; opacity: .25;"/>
        </g>
        <g>
          <line x1="292.61" y1="732.82" x2="291.87" y2="705.69" style="fill: #eb0037;"/>
          <path d="m292.61,733.21c-.21,0-.38-.17-.39-.38l-.74-27.13c0-.21.16-.39.38-.4.21,0,.39.16.4.38l.74,27.13c0,.21-.16.39-.38.4,0,0,0,0-.01,0Z"/>
        </g>
        <g>
          <line x1="296.7" y1="734.68" x2="295.96" y2="707.55" style="fill: #eb0037;"/>
          <path d="m296.7,735.06c-.21,0-.38-.17-.39-.38l-.74-27.13c0-.21.16-.39.38-.4.22,0,.39.16.4.38l.74,27.13c0,.21-.16.39-.38.4,0,0,0,0-.01,0Z"/>
        </g>
        <g>
          <line x1="300.79" y1="736.91" x2="300.04" y2="709.78" style="fill: #eb0037;"/>
          <path d="m300.79,737.29c-.21,0-.38-.17-.39-.38l-.74-27.13c0-.21.16-.39.38-.4.21,0,.39.16.4.38l.74,27.13c0,.21-.16.39-.38.4,0,0,0,0-.01,0Z"/>
        </g>
      </g>
      <g style="opacity: .5;">
        <g>
          <path d="m309.28,693.97c0,1.76-.24,3.19-.74,4.3-.5,1.11-1.21,1.9-2.14,2.38-.93.48-2.06.66-3.39.53-1.34-.13-2.84-.55-4.5-1.27-.76-.33-1.65-.75-2.66-1.26-1.01-.52-2.01-1.1-2.99-1.76l-.12-20.28c.98.26,2,.61,3.07,1.04,1.06.43,1.98.81,2.74,1.17,1.62.74,3.08,1.61,4.4,2.6,1.32.98,2.45,2.1,3.39,3.36.94,1.25,1.67,2.64,2.18,4.17.51,1.52.77,3.2.77,5.04Zm-12.21,1.21c.2.11.43.22.69.35.26.13.57.27.94.43,2.12.92,3.68,1.02,4.7.29,1.02-.73,1.52-2.12,1.51-4.17,0-2.14-.5-3.97-1.48-5.51-.98-1.53-2.53-2.78-4.66-3.75-.29-.13-.59-.26-.9-.4-.31-.13-.6-.24-.87-.32l.07,13.08Z" style="fill: #fff;"/>
          <path d="m323.51,709.96c-1.21-2.79-2.52-5.59-3.93-8.41-1.41-2.82-2.91-5.56-4.51-8.22l.03,13.27-4.17-1.71-.05-20.28,3.45,1.51c.6.89,1.26,1.95,1.98,3.18.72,1.23,1.46,2.52,2.21,3.88.75,1.36,1.5,2.75,2.24,4.18.74,1.43,1.44,2.79,2.09,4.09v-11.68s4.2,1.76,4.2,1.76v19.79s-3.54-1.38-3.54-1.38Z" style="fill: #fff;"/>
          <path d="m335.04,710.98c.59.22,1.08.36,1.47.4.39.04.7.02.93-.08.23-.09.4-.24.49-.46.09-.21.14-.47.14-.77,0-.64-.29-1.28-.86-1.92-.57-.64-1.56-1.48-2.96-2.51-.61-.46-1.22-.96-1.83-1.49-.61-.53-1.16-1.12-1.65-1.76-.49-.64-.88-1.33-1.19-2.09-.31-.76-.46-1.59-.46-2.49,0-.9.17-1.65.49-2.24.33-.59.79-1.02,1.38-1.28.6-.26,1.32-.35,2.17-.28.85.07,1.8.33,2.87.75,1.26.51,2.35,1.08,3.27,1.72.92.64,1.67,1.24,2.26,1.8l-1.23,2.93c-.52-.48-1.1-.95-1.74-1.41-.64-.46-1.41-.87-2.31-1.23-1.01-.4-1.73-.54-2.18-.43-.44.11-.66.47-.67,1.07,0,.36.08.69.24,1,.16.31.39.62.69.93.3.31.64.63,1.02.94.39.31.81.64,1.28.99.97.75,1.81,1.45,2.53,2.09.72.64,1.31,1.29,1.79,1.96.47.66.83,1.37,1.06,2.11.23.74.35,1.58.34,2.51,0,1.82-.62,3.01-1.84,3.57-1.22.57-3.06.4-5.52-.52-.83-.31-1.57-.64-2.24-1-.66-.36-1.25-.71-1.77-1.06-.51-.35-.95-.68-1.32-1-.37-.31-.68-.6-.93-.85l1.19-3.11c.56.54,1.25,1.1,2.06,1.67.82.57,1.82,1.08,3.01,1.53Z" style="fill: #fff;"/>
        </g>
      </g>
    </g>
    <g>
      <rect x="449.36" y="674.61" width="54.21" height="46.69" rx="6.21" ry="6.21" style="fill: #1c2538;"/>
      <rect x="520.44" y="674.61" width="354.85" height="46.69" rx="6.21" ry="6.21" style="fill: #1c2538;"/>
      <g>
        <path d="m481.1,690.13v10.66h1.9v3.13h-1.9v3.97h-3.74v-3.97h-7.67v-2.79c.38-.75.85-1.6,1.41-2.55.56-.95,1.19-1.92,1.88-2.92.69-1,1.42-1.98,2.19-2.94.77-.96,1.54-1.82,2.31-2.59h3.62Zm-3.74,4.67c-.67.87-1.38,1.82-2.13,2.84-.75,1.03-1.38,2.08-1.9,3.15h4.02v-6Z" style="fill: #a3ea2a;"/>
        <g>
          <path d="m550.72,707.9c-.2-.62-.41-1.25-.64-1.9-.23-.65-.45-1.3-.68-1.94h-6.94c-.22.65-.45,1.3-.67,1.95s-.44,1.28-.63,1.9h-4.15c.67-1.91,1.3-3.68,1.9-5.31.6-1.62,1.19-3.15,1.76-4.59.58-1.44,1.14-2.8,1.7-4.09.56-1.29,1.14-2.55,1.74-3.78h3.79c.58,1.23,1.16,2.49,1.73,3.78.57,1.29,1.14,2.65,1.71,4.09s1.16,2.97,1.76,4.59c.6,1.62,1.24,3.39,1.91,5.31h-4.28Zm-4.8-13.74c-.09.26-.22.61-.39,1.05s-.37.96-.59,1.54-.46,1.22-.74,1.92c-.27.7-.55,1.43-.83,2.2h5.08c-.27-.77-.54-1.51-.79-2.21-.25-.7-.5-1.34-.73-1.93-.23-.58-.43-1.09-.6-1.54s-.31-.79-.42-1.04Z" style="fill: #a3ea2a;"/>
          <path d="m568.54,707.43c-.65.19-1.49.36-2.51.53s-2.1.24-3.23.24-2.1-.15-2.86-.46c-.76-.31-1.36-.74-1.81-1.29s-.76-1.22-.95-1.99c-.19-.77-.28-1.62-.28-2.54v-7.51h3.82v7.05c0,1.23.16,2.12.49,2.67.32.55.93.82,1.82.82.27,0,.56-.01.87-.04.31-.03.58-.06.82-.09v-10.41h3.82v13.02Z" style="fill: #a3ea2a;"/>
          <path d="m572,691.05l3.82-.62v3.97h4.59v3.18h-4.59v4.74c0,.8.14,1.45.42,1.92.28.48.85.72,1.71.72.41,0,.83-.04,1.27-.12s.83-.18,1.19-.32l.54,2.97c-.46.19-.97.35-1.54.49-.56.14-1.26.21-2.08.21-1.04,0-1.91-.14-2.59-.42s-1.23-.67-1.64-1.18c-.41-.5-.7-1.12-.86-1.83-.16-.72-.24-1.51-.24-2.38v-11.33Z" style="fill: #a3ea2a;"/>
          <path d="m583.51,707.9v-19.28l3.82-.62v6.46c.26-.08.58-.17.99-.24.4-.08.79-.12,1.17-.12,1.09,0,2,.15,2.73.45.73.3,1.31.72,1.74,1.27s.74,1.2.92,1.95.27,1.59.27,2.51v7.61h-3.82v-7.15c0-1.23-.16-2.1-.47-2.62-.32-.51-.9-.77-1.76-.77-.34,0-.66.03-.96.09-.3.06-.57.12-.81.19v10.25h-3.82Z" style="fill: #a3ea2a;"/>
          <path d="m611.22,701.13c0,1.06-.15,2.03-.46,2.91-.31.88-.75,1.63-1.33,2.26-.58.62-1.28,1.11-2.09,1.45-.81.34-1.72.51-2.73.51s-1.89-.17-2.7-.51c-.81-.34-1.51-.82-2.09-1.45-.58-.62-1.03-1.38-1.36-2.26-.33-.88-.49-1.85-.49-2.91s.17-2.03.5-2.9c.33-.87.79-1.62,1.38-2.23s1.29-1.09,2.1-1.44c.81-.34,1.7-.51,2.65-.51s1.87.17,2.68.51c.81.34,1.51.82,2.09,1.44s1.03,1.36,1.36,2.23c.33.87.49,1.84.49,2.9Zm-3.9,0c0-1.18-.24-2.11-.71-2.78-.47-.67-1.14-1.01-2.01-1.01s-1.55.34-2.02,1.01c-.48.68-.72,1.6-.72,2.78s.24,2.11.72,2.81c.48.69,1.15,1.04,2.02,1.04s1.54-.35,2.01-1.04.71-1.63.71-2.81Z" style="fill: #a3ea2a;"/>
          <path d="m622.3,697.79c-.34-.08-.74-.17-1.21-.27-.46-.09-.96-.14-1.49-.14-.24,0-.53.02-.86.06-.33.04-.58.09-.76.14v10.31h-3.82v-12.77c.68-.24,1.49-.47,2.42-.68.93-.21,1.97-.32,3.12-.32.21,0,.45.01.74.04.29.03.58.06.87.1.29.04.58.09.87.15s.54.13.74.22l-.64,3.15Z" style="fill: #a3ea2a;"/>
          <path d="m629.17,690.51c0,.7-.23,1.25-.68,1.65-.45.4-.99.6-1.6.6s-1.15-.2-1.6-.6c-.45-.4-.68-.95-.68-1.65s.23-1.25.68-1.65c.45-.4.99-.6,1.6-.6s1.15.2,1.6.6c.45.4.68.95.68,1.65Zm-.36,17.38h-3.82v-13.48h3.82v13.48Z" style="fill: #a3ea2a;"/>
          <path d="m632.27,691.05l3.82-.62v3.97h4.59v3.18h-4.59v4.74c0,.8.14,1.45.42,1.92.28.48.85.72,1.71.72.41,0,.83-.04,1.27-.12s.83-.18,1.19-.32l.54,2.97c-.46.19-.97.35-1.54.49-.56.14-1.26.21-2.08.21-1.04,0-1.91-.14-2.59-.42s-1.23-.67-1.64-1.18c-.41-.5-.7-1.12-.86-1.83-.16-.72-.24-1.51-.24-2.38v-11.33Z" style="fill: #a3ea2a;"/>
          <path d="m648.11,694.05c1.13,0,2.07.13,2.82.38.75.26,1.35.62,1.81,1.1.45.48.77,1.06.96,1.74.19.68.28,1.44.28,2.28v7.95c-.55.12-1.31.26-2.28.42-.97.16-2.15.24-3.54.24-.87,0-1.66-.08-2.37-.23-.71-.15-1.32-.41-1.83-.76-.51-.35-.91-.81-1.18-1.37-.27-.56-.41-1.26-.41-2.08s.16-1.45.47-2,.74-.98,1.27-1.31c.53-.32,1.14-.56,1.82-.71.68-.15,1.39-.22,2.13-.22.5,0,.94.02,1.32.06.38.04.7.1.94.17v-.36c0-.65-.2-1.17-.59-1.56-.39-.39-1.08-.59-2.05-.59-.65,0-1.29.05-1.92.14-.63.09-1.18.23-1.64.4l-.49-3.08c.22-.07.5-.14.83-.22.33-.08.7-.14,1.09-.21.39-.06.81-.11,1.24-.15s.88-.06,1.32-.06Zm.31,11.18c.38,0,.73,0,1.08-.03.34-.02.62-.04.82-.08v-2.9c-.15-.03-.38-.07-.69-.1-.31-.03-.59-.05-.85-.05-.36,0-.7.02-1.01.06-.32.04-.59.12-.83.24s-.43.28-.56.49-.21.46-.21.77c0,.6.2,1.01.6,1.24.4.23.95.35,1.65.35Z" style="fill: #a3ea2a;"/>
          <path d="m657.32,691.05l3.82-.62v3.97h4.59v3.18h-4.59v4.74c0,.8.14,1.45.42,1.92.28.48.85.72,1.71.72.41,0,.83-.04,1.27-.12s.83-.18,1.19-.32l.54,2.97c-.46.19-.97.35-1.54.49-.56.14-1.26.21-2.08.21-1.04,0-1.91-.14-2.59-.42s-1.23-.67-1.64-1.18c-.41-.5-.7-1.12-.86-1.83-.16-.72-.24-1.51-.24-2.38v-11.33Z" style="fill: #a3ea2a;"/>
          <path d="m673,690.51c0,.7-.23,1.25-.68,1.65-.45.4-.99.6-1.6.6s-1.15-.2-1.6-.6c-.45-.4-.68-.95-.68-1.65s.23-1.25.68-1.65c.45-.4.99-.6,1.6-.6s1.15.2,1.6.6c.45.4.68.95.68,1.65Zm-.36,17.38h-3.82v-13.48h3.82v13.48Z" style="fill: #a3ea2a;"/>
          <path d="m679.51,707.9c-.88-1.71-1.76-3.71-2.66-6-.9-2.29-1.75-4.79-2.56-7.49h4.05c.17.67.37,1.39.61,2.17.23.78.47,1.56.72,2.36s.5,1.57.75,2.32.49,1.44.73,2.05c.22-.62.46-1.3.72-2.05.26-.75.51-1.53.76-2.32.25-.79.49-1.58.72-2.36.23-.78.43-1.5.61-2.17h3.95c-.81,2.7-1.66,5.2-2.56,7.49-.9,2.29-1.79,4.29-2.66,6h-3.17Z" style="fill: #a3ea2a;"/>
          <path d="m688.92,701.26c0-1.2.18-2.24.55-3.14.37-.9.85-1.64,1.45-2.24s1.29-1.05,2.06-1.36,1.58-.46,2.4-.46c1.91,0,3.43.59,4.54,1.76,1.11,1.17,1.67,2.89,1.67,5.17,0,.22,0,.47-.03.73-.02.27-.03.5-.05.71h-8.67c.08.79.45,1.41,1.1,1.87.65.46,1.52.69,2.61.69.7,0,1.39-.06,2.06-.19.68-.13,1.23-.29,1.65-.47l.51,3.1c-.21.1-.48.21-.82.31-.34.1-.72.19-1.14.27s-.87.14-1.35.19c-.48.05-.96.08-1.44.08-1.21,0-2.27-.18-3.17-.54-.9-.36-1.64-.85-2.23-1.47s-1.03-1.36-1.31-2.22c-.28-.85-.42-1.78-.42-2.77Zm8.97-1.46c-.02-.33-.07-.64-.17-.95-.09-.31-.24-.58-.44-.82-.2-.24-.44-.44-.74-.59-.3-.15-.67-.23-1.12-.23s-.79.07-1.1.22c-.31.15-.56.34-.77.58s-.36.52-.47.83c-.11.32-.19.64-.24.96h5.05Z" style="fill: #a3ea2a;"/>
          <path d="m726.51,699c0,1.54-.24,2.88-.72,4.02-.48,1.15-1.16,2.09-2.04,2.85-.88.75-1.95,1.32-3.22,1.69-1.26.38-2.68.56-4.26.56-.72,0-1.55-.03-2.51-.09-.96-.06-1.9-.18-2.82-.37v-17.3c.92-.17,1.88-.29,2.88-.35,1-.06,1.86-.09,2.58-.09,1.52,0,2.9.17,4.14.51s2.3.88,3.19,1.62c.89.73,1.57,1.67,2.05,2.82.48,1.15.72,2.52.72,4.13Zm-11.56,5.64c.19.02.41.03.65.04.25,0,.54.01.88.01,2,0,3.48-.5,4.45-1.51.96-1.01,1.45-2.4,1.45-4.18s-.46-3.27-1.38-4.23c-.92-.96-2.38-1.44-4.38-1.44-.27,0-.56,0-.85.01-.29,0-.56.03-.82.06v11.23Z" style="fill: #a3ea2a;"/>
          <path d="m741.76,707.9c-1.15-2.03-2.38-4.04-3.72-6.02-1.33-1.98-2.75-3.85-4.26-5.61v11.64h-3.95v-17.77h3.26c.56.56,1.19,1.26,1.87,2.08s1.38,1.7,2.09,2.63c.71.93,1.41,1.9,2.12,2.9.7,1,1.36,1.96,1.97,2.88v-10.49h3.97v17.77h-3.36Z" style="fill: #a3ea2a;"/>
          <path d="m754.07,704.84c.56,0,1.03-.05,1.4-.14s.66-.22.88-.38c.22-.16.38-.35.46-.58.09-.22.13-.47.13-.74,0-.58-.27-1.06-.82-1.45-.55-.38-1.49-.8-2.82-1.24-.58-.21-1.16-.44-1.74-.71s-1.1-.6-1.56-1c-.46-.4-.84-.89-1.13-1.46-.29-.57-.44-1.27-.44-2.09s.15-1.56.46-2.22c.31-.66.74-1.22,1.31-1.68.56-.46,1.25-.82,2.05-1.06.8-.25,1.71-.37,2.72-.37,1.2,0,2.23.13,3.1.38.87.26,1.59.54,2.15.85l-1.15,3.15c-.5-.26-1.05-.48-1.65-.68-.61-.2-1.34-.29-2.19-.29-.96,0-1.65.13-2.06.4-.42.27-.63.67-.63,1.22,0,.33.08.6.23.82.15.22.37.42.65.6s.61.34.97.49c.37.15.77.29,1.22.45.92.34,1.73.68,2.41,1.01s1.25.72,1.71,1.17c.45.44.79.97,1.01,1.56.22.6.33,1.32.33,2.18,0,1.66-.58,2.94-1.74,3.86-1.16.92-2.91,1.37-5.25,1.37-.79,0-1.5-.05-2.13-.14-.63-.09-1.19-.21-1.68-.35-.49-.14-.91-.28-1.26-.44-.35-.15-.65-.3-.88-.44l1.13-3.18c.53.29,1.18.55,1.96.78.78.23,1.73.35,2.86.35Z" style="fill: #a3ea2a;"/>
          <path d="m775.14,704.84c.56,0,1.03-.05,1.4-.14s.66-.22.88-.38c.22-.16.38-.35.46-.58.09-.22.13-.47.13-.74,0-.58-.27-1.06-.82-1.45-.55-.38-1.49-.8-2.82-1.24-.58-.21-1.16-.44-1.74-.71s-1.1-.6-1.56-1c-.46-.4-.84-.89-1.13-1.46-.29-.57-.44-1.27-.44-2.09s.15-1.56.46-2.22c.31-.66.74-1.22,1.31-1.68.56-.46,1.25-.82,2.05-1.06.8-.25,1.71-.37,2.72-.37,1.2,0,2.23.13,3.1.38.87.26,1.59.54,2.15.85l-1.15,3.15c-.5-.26-1.05-.48-1.65-.68-.61-.2-1.34-.29-2.19-.29-.96,0-1.65.13-2.06.4-.42.27-.63.67-.63,1.22,0,.33.08.6.23.82.15.22.37.42.65.6s.61.34.97.49c.37.15.77.29,1.22.45.92.34,1.73.68,2.41,1.01s1.25.72,1.71,1.17c.45.44.79.97,1.01,1.56.22.6.33,1.32.33,2.18,0,1.66-.58,2.94-1.74,3.86-1.16.92-2.91,1.37-5.25,1.37-.79,0-1.5-.05-2.13-.14-.63-.09-1.19-.21-1.68-.35-.49-.14-.91-.28-1.26-.44-.35-.15-.65-.3-.88-.44l1.13-3.18c.53.29,1.18.55,1.96.78.78.23,1.73.35,2.86.35Z" style="fill: #a3ea2a;"/>
          <path d="m784.31,701.26c0-1.2.18-2.24.55-3.14.37-.9.85-1.64,1.45-2.24s1.29-1.05,2.06-1.36,1.58-.46,2.4-.46c1.91,0,3.43.59,4.54,1.76,1.11,1.17,1.67,2.89,1.67,5.17,0,.22,0,.47-.03.73-.02.27-.03.5-.05.71h-8.67c.08.79.45,1.41,1.1,1.87.65.46,1.52.69,2.61.69.7,0,1.39-.06,2.06-.19.68-.13,1.23-.29,1.65-.47l.51,3.1c-.21.1-.48.21-.82.31-.34.1-.72.19-1.14.27s-.87.14-1.35.19c-.48.05-.96.08-1.44.08-1.21,0-2.27-.18-3.17-.54-.9-.36-1.64-.85-2.23-1.47s-1.03-1.36-1.31-2.22c-.28-.85-.42-1.78-.42-2.77Zm8.97-1.46c-.02-.33-.07-.64-.17-.95-.09-.31-.24-.58-.44-.82-.2-.24-.44-.44-.74-.59-.3-.15-.67-.23-1.12-.23s-.79.07-1.1.22c-.31.15-.56.34-.77.58s-.36.52-.47.83c-.11.32-.19.64-.24.96h5.05Z" style="fill: #a3ea2a;"/>
          <path d="m808.05,697.79c-.34-.08-.74-.17-1.21-.27-.46-.09-.96-.14-1.49-.14-.24,0-.53.02-.86.06-.33.04-.58.09-.76.14v10.31h-3.82v-12.77c.68-.24,1.49-.47,2.42-.68.93-.21,1.97-.32,3.12-.32.21,0,.45.01.74.04.29.03.58.06.87.1.29.04.58.09.87.15s.54.13.74.22l-.64,3.15Z" style="fill: #a3ea2a;"/>
          <path d="m815.23,707.9c-.88-1.71-1.76-3.71-2.66-6-.9-2.29-1.75-4.79-2.56-7.49h4.05c.17.67.37,1.39.61,2.17.23.78.47,1.56.72,2.36s.5,1.57.75,2.32.49,1.44.73,2.05c.22-.62.46-1.3.72-2.05.26-.75.51-1.53.76-2.32.25-.79.49-1.58.72-2.36.23-.78.43-1.5.61-2.17h3.95c-.81,2.7-1.66,5.2-2.56,7.49-.9,2.29-1.79,4.29-2.66,6h-3.17Z" style="fill: #a3ea2a;"/>
          <path d="m824.64,701.26c0-1.2.18-2.24.55-3.14.37-.9.85-1.64,1.45-2.24s1.29-1.05,2.06-1.36,1.58-.46,2.4-.46c1.91,0,3.43.59,4.54,1.76,1.11,1.17,1.67,2.89,1.67,5.17,0,.22,0,.47-.03.73-.02.27-.03.5-.05.71h-8.67c.08.79.45,1.41,1.1,1.87.65.46,1.52.69,2.61.69.7,0,1.39-.06,2.06-.19.68-.13,1.23-.29,1.65-.47l.51,3.1c-.21.1-.48.21-.82.31-.34.1-.72.19-1.14.27s-.87.14-1.35.19c-.48.05-.96.08-1.44.08-1.21,0-2.27-.18-3.17-.54-.9-.36-1.64-.85-2.23-1.47s-1.03-1.36-1.31-2.22c-.28-.85-.42-1.78-.42-2.77Zm8.97-1.46c-.02-.33-.07-.64-.17-.95-.09-.31-.24-.58-.44-.82-.2-.24-.44-.44-.74-.59-.3-.15-.67-.23-1.12-.23s-.79.07-1.1.22c-.31.15-.56.34-.77.58s-.36.52-.47.83c-.11.32-.19.64-.24.96h5.05Z" style="fill: #a3ea2a;"/>
          <path d="m848.38,697.79c-.34-.08-.74-.17-1.21-.27-.46-.09-.96-.14-1.49-.14-.24,0-.53.02-.86.06-.33.04-.58.09-.76.14v10.31h-3.82v-12.77c.68-.24,1.49-.47,2.42-.68.93-.21,1.97-.32,3.12-.32.21,0,.45.01.74.04.29.03.58.06.87.1.29.04.58.09.87.15s.54.13.74.22l-.64,3.15Z" style="fill: #a3ea2a;"/>
        </g>
      </g>
    </g>
    <path d="m491.46,239.04h-8v-12.03s0,0,0,0v-52.63h8c.92,0,1.49-1.01,1.04-1.81l-15.51-27.28c-.45-.81-1.6-.81-2.05,0l-15.51,27.28c-.45.81.12,1.81,1.04,1.81h8v12.03s0,0,0,0v52.63s-8,0-8,0c-.92,0-1.49,1.01-1.04,1.81l15.51,27.28c.46.81,1.6.81,2.05,0l15.51-27.28c.45-.81-.12-1.81-1.04-1.81Z" style="fill: url(#linear-gradient-67);"/>
    <g id="arrow_styles_for_diagrams_etc" data-name="arrow styles for diagrams etc">
      <g id="arrow_styles_for_diagrams_etc-2" data-name="arrow styles for diagrams etc">
        <g id="arrow_styles_for_diagrams_etc-3" data-name="arrow styles for diagrams etc">
          <path d="m474.76,465.95l-15.51-27.28c-.45-.81.12-1.81,1.04-1.81h8v-92.63c0-2.42,1.96-4.37,4.37-4.37h6.26c2.41,0,4.36,1.95,4.36,4.36v92.64h8c.92,0,1.49,1.01,1.04,1.81l-15.51,27.28c-.45.81-1.6.81-2.05,0Z" style="fill: url(#linear-gradient-68);"/>
        </g>
      </g>
    </g>
    <g id="arrow_styles_for_diagrams_etc-4" data-name="arrow styles for diagrams etc">
      <g id="arrow_styles_for_diagrams_etc-5" data-name="arrow styles for diagrams etc">
        <g id="arrow_styles_for_diagrams_etc-6" data-name="arrow styles for diagrams etc">
          <path d="m475.76,662.44l-15.51-27.28c-.45-.81.12-1.81,1.04-1.81h8v-92.63c0-2.42,1.96-4.37,4.37-4.37h6.26c2.41,0,4.36,1.95,4.36,4.36v92.64h8c.92,0,1.49,1.01,1.04,1.81l-15.51,27.28c-.45.81-1.6.81-2.05,0Z" style="fill: url(#linear-gradient-69);"/>
        </g>
      </g>
    </g>
  </g>
  <g id="Artwork_35" data-name="Artwork 35">
    <g>
      <path id="cloud" d="m399.4,656.36c-.29-1.5-1.62-2.64-3.23-2.64h-.57c-.43-2.15-2.32-3.72-4.54-3.72s-4.11,1.58-4.54,3.74c-1.65.18-2.93,1.56-2.93,3.24,0,1.8,1.48,3.26,3.29,3.26h4.86c.26,0,.46-.23.45-.49,0-.25-.21-.45-.45-.45h-4.86c-1.3,0-2.35-1.04-2.35-2.32s1.05-2.32,2.35-2.32c.48,0,.95.15,1.34.42.18.13.44.12.6-.05h0c.18-.18.18-.47,0-.65h0s-.04-.04-.06-.05c-.39-.28-.83-.46-1.3-.55.4-1.65,1.86-2.84,3.59-2.84,1.82,0,3.36,1.33,3.65,3.13-.15.08-.29.16-.42.25-.21.15-.26.44-.11.65.02.02.03.04.05.06h0c.16.16.42.18.6.05.39-.28.86-.43,1.34-.42,1.15,0,2.1.81,2.31,1.88.04.22.23.38.46.38h0c.25,0,.46-.2.47-.46h0s0-.06,0-.09Z" style="fill: #fff;"/>
      <g id="numbers">
        <path d="m393.63,659.48h-.4v-1.27s0-.2,0-.2c-.05.05-.09.09-.14.13l-.22.17-.19-.24.61-.48h.33v1.88Z" style="fill: #fff;"/>
        <path d="m395.45,658.54c0,.33-.05.58-.16.73s-.28.24-.5.24-.38-.08-.49-.25-.17-.41-.17-.72.05-.58.16-.74.27-.24.5-.24.38.08.49.25c.12.17.17.41.17.73Zm-.92,0c0,.23.02.4.06.5s.11.15.2.15.16-.05.2-.15.06-.27.06-.5-.02-.4-.06-.5-.11-.15-.2-.15-.16.05-.2.15-.06.27-.06.5Z" style="fill: #fff;"/>
        <path d="m393.63,662.36h-.4v-1.27s0-.2,0-.2c-.05.05-.09.09-.14.13l-.22.17-.19-.24.61-.48h.33v1.88Z" style="fill: #fff;"/>
        <path d="m395.11,662.36h-.4v-1.27s0-.2,0-.2c-.05.05-.09.09-.14.13l-.22.17-.19-.24.61-.48h.33v1.88h0Z" style="fill: #fff;"/>
        <path d="m396.63,662.36h-.4v-1.27s0-.2,0-.2c-.05.05-.09.09-.14.13l-.22.17-.19-.24.61-.48h.33v1.88Z" style="fill: #fff;"/>
        <path d="m398.47,661.41c0,.33-.05.58-.16.73s-.28.24-.5.24-.38-.08-.49-.25-.17-.41-.17-.73.05-.58.16-.74.27-.24.5-.24.38.08.49.25c.12.16.18.41.17.73Zm-.92,0c0,.23.02.4.06.5s.11.15.2.15.16-.05.2-.15.06-.27.06-.5-.02-.4-.06-.5-.11-.15-.2-.15-.16.05-.2.15-.06.26-.06.5Z" style="fill: #fff;"/>
        <path d="m399.34,663.68c0,.24-.04.42-.12.53s-.2.17-.36.17-.28-.06-.36-.18-.12-.29-.12-.53.04-.42.12-.54c.08-.12.2-.17.36-.17s.28.06.36.18.12.3.12.53Zm-.67,0c0,.17.02.29.04.36.02.07.08.11.15.11s.12-.04.15-.11.05-.19.05-.36-.02-.29-.05-.36-.08-.11-.15-.11-.12.04-.15.11-.05.19-.05.36h0Z" style="fill: #fff;"/>
        <path d="m400.19,664.36h-.3v-.92s0-.14,0-.14c-.05.05-.08.08-.1.09l-.16.13-.14-.17.46-.35h.25v1.36h0Z" style="fill: #fff;"/>
        <path d="m393.53,663.69c0,.24-.04.41-.12.52s-.2.17-.36.17-.27-.06-.35-.18-.12-.29-.12-.52.04-.41.12-.52.19-.17.35-.17.27.06.35.18.12.29.12.52Zm-.66,0c0,.16.02.28.04.35.02.06.08.11.15.11.07,0,.12-.04.14-.11s.05-.19.05-.35-.02-.28-.05-.35-.08-.11-.14-.11-.12.04-.14.11-.05.19-.05.36h0Z" style="fill: #fff;"/>
        <path d="m394.38,664.36h-.3v-.9s0-.14,0-.14c-.05.05-.08.08-.1.09l-.16.12-.14-.17.46-.34h.25v1.33Z" style="fill: #fff;"/>
        <path d="m395.68,663.69c0,.24-.04.41-.12.52s-.2.17-.36.17-.27-.06-.35-.18-.12-.29-.12-.52.04-.41.12-.52.19-.17.35-.17.27.06.35.18.12.29.12.52Zm-.66,0c0,.16.02.28.04.35.02.06.08.11.15.11.07,0,.12-.04.14-.11s.05-.19.05-.35-.02-.28-.05-.35-.08-.11-.14-.11-.12.04-.14.11-.05.19-.05.36h0Z" style="fill: #fff;"/>
        <path d="m396.53,664.36h-.27v-.9s0-.14,0-.14c-.05.05-.08.08-.1.09l-.15.12-.13-.17.41-.34h.22v1.33Z" style="fill: #fff;"/>
        <path d="m393.25,665.41c0,.17-.03.29-.08.38s-.14.12-.26.12c-.1,0-.2-.04-.25-.13-.06-.08-.08-.21-.08-.37,0-.17.03-.3.08-.38s.14-.12.25-.12c.1,0,.2.04.25.13.05.09.08.21.08.38Zm-.48.01c0,.12,0,.2.03.26.02.06.07.09.13.07h0s.06-.04.07-.07c.02-.05.03-.14.03-.26,0-.09,0-.18-.03-.26-.02-.06-.07-.09-.13-.08h0s-.06.04-.07.07c-.02.09-.03.17-.03.26Z" style="fill: #fff;"/>
        <path d="m393.87,665.9h-.22v-.65s0-.1,0-.1c-.03.03-.06.06-.07.07l-.12.09-.1-.12.33-.25h.17v.97Z" style="fill: #fff;"/>
        <path d="m395.94,666.62c0,.17-.03.29-.08.38s-.14.12-.26.12c-.1,0-.2-.04-.25-.13-.06-.08-.08-.21-.08-.37s.03-.3.08-.38.14-.12.25-.12c.1,0,.2.04.25.13.06.09.09.21.09.38Zm-.47-.01c0,.12,0,.2.03.25.02.05.07.09.13.08h0s.06-.04.07-.07c.02-.05.03-.14.03-.25,0-.09,0-.18-.03-.26-.01-.05-.05-.08-.1-.08s-.09.03-.1.08c-.02.05-.03.13-.03.25Z" style="fill: #fff;"/>
        <path d="m396.56,667.11h-.21v-.65s0-.1,0-.1c-.03.03-.06.06-.07.07l-.12.09-.1-.12.32-.25h.17v.97Z" style="fill: #fff;"/>
        <path d="m398.16,665.22c0,.24-.04.41-.12.52s-.2.17-.36.17-.27-.06-.35-.18-.12-.29-.12-.52.04-.41.12-.52.19-.17.35-.17.27.06.35.18.12.29.12.52Zm-.66,0c0,.17.02.28.04.35.02.06.08.11.15.11.07,0,.12-.04.14-.11s.05-.19.05-.35-.02-.28-.05-.36-.08-.11-.15-.11-.12.04-.14.11-.04.2-.04.36h0Z" style="fill: #fff;"/>
        <path d="m399.01,665.87h-.3v-.9s0-.14,0-.14c-.05.05-.08.08-.1.09l-.16.12-.14-.17.46-.34h.25v1.33h0Z" style="fill: #fff;"/>
        <path d="m400.31,665.22c0,.24-.04.41-.12.52s-.2.17-.36.17-.27-.06-.35-.18-.12-.29-.12-.52.04-.41.12-.52.19-.17.35-.17.27.06.35.18.12.29.12.52Zm-.66,0c0,.17.02.28.04.35.02.06.08.11.15.11.07,0,.12-.04.14-.11s.05-.19.05-.35-.02-.28-.05-.36-.08-.11-.14-.11-.12.04-.14.11-.05.2-.05.36h0Z" style="fill: #fff;"/>
        <path d="m398.23,659.48h-.4v-1.27s0-.2,0-.2c-.05.05-.09.09-.14.13l-.22.17-.19-.24.6-.48h.33v1.88h0Z" style="fill: #fff;"/>
        <path d="m400.08,658.54c0,.33-.05.58-.16.73s-.28.24-.5.24-.38-.08-.49-.25-.17-.41-.17-.72.05-.58.16-.74.27-.24.5-.24.38.08.49.25.17.41.17.73Zm-.93,0c0,.23.02.4.06.5s.11.15.2.15.16-.05.2-.15.06-.27.06-.5-.02-.4-.06-.5-.11-.15-.2-.15-.16.05-.2.15-.06.27-.06.5h0Z" style="fill: #fff;"/>
      </g>
    </g>
  </g>
</svg>